<?xml version="1.0" encoding="UTF-8"?>
<svg version="1.1" xmlns="http://www.w3.org/2000/svg" width="750" height="750">
<path d="M0 0 C0.433125 -0.94875 0.86625 -1.8975 1.3125 -2.875 C3 -6 3 -6 6 -8 C11.70500963 -8.41884881 17.05590131 -7.48011802 22.625 -6.375 C23.45773437 -6.23449219 24.29046875 -6.09398438 25.1484375 -5.94921875 C29.3088241 -5.12111632 32.192259 -4.33468983 35.0625 -1.09765625 C38.27591788 4.03992517 37.25937424 8.90041022 36.546875 14.66796875 C35.37188234 22.859823 35.37188234 22.859823 38.125 30.3125 C42.00185539 33.89745098 46.79796255 34.10867073 51.87890625 34.515625 C55.32798209 35.05090085 57.23837619 35.88533002 60 38 C61.29296875 40.0078125 61.29296875 40.0078125 62.1875 42.125 C63.37388147 45.21369207 63.37388147 45.21369207 66 47 C68.10477352 47.25711931 70.21566646 47.46485966 72.328125 47.6484375 C73.60300781 47.76703125 74.87789063 47.885625 76.19140625 48.0078125 C78.21623561 48.19282229 80.24116523 48.37424719 82.26708984 48.546875 C84.22590457 48.71566393 86.18330178 48.90065212 88.140625 49.0859375 C89.89681152 49.2413501 89.89681152 49.2413501 91.68847656 49.39990234 C98.53506514 50.64060676 102.05741576 53.59302733 106 59 C108.93714987 67.8114496 106.37074129 78.72022428 105.46875 87.84765625 C105.31143299 89.47143484 105.15449741 91.09525042 104.9979248 92.71910095 C104.58743467 96.96577921 104.17180821 101.21193917 103.75506592 105.45800781 C103.32966707 109.80177895 102.90918881 114.14602615 102.48828125 118.49023438 C101.66363633 126.99395989 100.83355801 135.49714356 100 144 C101.16402344 144.19529297 101.16402344 144.19529297 102.3515625 144.39453125 C105.74468609 145.17024535 107.00374564 146.15917649 109 149 C109.10945166 153.92532481 107.01459281 156.69553443 103.9609375 160.2890625 C102.84324396 161.94601335 102.84324396 161.94601335 103.01953125 163.87890625 C104.46430647 167.00445582 106.7886615 169.05329546 109.3125 171.3125 C109.85229492 171.7967041 110.39208984 172.2809082 110.94824219 172.77978516 C129.08123036 188.60005345 152.10134945 190.75738271 175.015625 193.99609375 C197.21669792 197.1422679 217.69910139 200.18687352 234 217 C234.58394531 217.57492187 235.16789062 218.14984375 235.76953125 218.7421875 C244.52972038 228.01246359 246.50095137 239.25007263 246.265625 251.4921875 C245.50392879 269.19789051 234.95657529 285.68163457 224 299 C223.58476074 299.51530273 223.16952148 300.03060547 222.74169922 300.56152344 C195.90352908 333.76111128 161.08472352 360.93536502 124.4375 382.5 C123.40173828 383.11214355 122.36597656 383.72428711 121.29882812 384.35498047 C120.31205078 384.92877441 119.32527344 385.50256836 118.30859375 386.09375 C117.43001709 386.60615234 116.55144043 387.11855469 115.64624023 387.64648438 C112.82817235 389.08788749 110.02245287 390.07299277 107 391 C109.21989446 395.71727574 111.66659305 400.14545171 114.4375 404.5625 C119.57826948 412.80128498 124.29270501 421.27635933 129.046875 429.7421875 C129.55766602 430.64864014 130.06845703 431.55509277 130.59472656 432.48901367 C131.45699863 434.02974825 132.3101203 435.57570204 133.14746094 437.13012695 C134.98886106 440.50766121 136.73533019 443.0394672 139.75 445.4375 C142.72199321 447.91416101 145.59582877 450.43173042 148.375 453.125 C149.02210938 453.74632812 149.66921875 454.36765625 150.3359375 455.0078125 C152.18595253 457.22261923 153.06950336 459.28370173 154 462 C150.56404834 460.47291037 147.88087546 458.40072955 145 456 C145.17917969 456.70125 145.35835938 457.4025 145.54296875 458.125 C146.74328429 463.47913479 147.67043923 467.90528509 145.3203125 473.0078125 C142.52794332 477.22115062 139.04477367 480.97167725 135 484 C133.68 484 132.36 484 131 484 C131.350625 482.741875 131.70125 481.48375 132.0625 480.1875 C133.28278615 474.56891631 132.98313248 469.6376503 132 464 C131.855625 463.07445312 131.71125 462.14890625 131.5625 461.1953125 C129.16219782 451.13040905 121.8377962 444.93584062 114.79003906 437.84960938 C111.6565758 434.61186829 108.91521828 431.10125153 106.109375 427.578125 C103.81165696 424.76980295 101.39664852 422.10530355 98.9375 419.4375 C94.37235402 414.47942283 90.13265833 409.32166338 86 404 C80.26384509 404.61122962 75.39090353 406.72707244 70.125 408.9375 C68.40058693 409.66009888 66.67404024 410.37762891 64.9453125 411.08984375 C64.18750488 411.40816162 63.42969727 411.72647949 62.64892578 412.05444336 C59.14878331 413.30384905 55.61500032 414.13749794 52 415 C52.01571045 416.04414062 52.0314209 417.08828125 52.04760742 418.1640625 C52.31405038 437.63305953 52.30674471 456.88026905 50.06713867 476.2421875 C49.04358103 485.21397732 48.84103864 493.98630218 49 503 C50.47750732 502.98428955 50.47750732 502.98428955 51.98486328 502.96826172 C279.86371726 500.81298762 279.86371726 500.81298762 309 518 C309.73950195 520.1015625 309.73950195 520.1015625 310 522 C304.31807594 524.7360291 298.89793086 526.00083066 292.6875 527 C291.64029785 527.16878662 290.5930957 527.33757324 289.51416016 527.51147461 C237.4034616 535.4892971 183.5844182 535.59440219 131 537 C129.89841553 537.03029297 128.79683105 537.06058594 127.66186523 537.09179688 C54.20188319 539.09783446 -19.54140307 539.02007112 -93 537 C-94.18150635 536.96841797 -95.3630127 536.93683594 -96.58032227 536.90429688 C-141.1343942 535.7082931 -185.72797085 534.1382494 -230.125 530.0625 C-230.95388733 529.98904358 -231.78277466 529.91558716 -232.63677979 529.83990479 C-241.85260767 529.00927974 -250.90815486 527.77377822 -259.9921875 525.99609375 C-260.84821564 525.83021255 -261.70424377 525.66433136 -262.58621216 525.49342346 C-263.38131195 525.32986862 -264.17641174 525.16631378 -264.99560547 524.99780273 C-265.69765106 524.85382553 -266.39969666 524.70984833 -267.12301636 524.56150818 C-269 524 -269 524 -272 522 C-271.7043457 520.1015625 -271.7043457 520.1015625 -271 518 C-264.44762489 514.74338346 -257.50766628 513.94223003 -250.3125 513 C-249.03689209 512.83121338 -247.76128418 512.66242676 -246.44702148 512.48852539 C-161.07150979 501.48834261 -73.29505887 502.99019897 32 502 C38.54539113 489.76773802 32.91265906 468.34087867 31.74047852 455.20001221 C31.50097026 452.49174555 31.26941523 449.78282187 31.03788853 447.07386303 C30.76005214 443.83401922 30.4755727 440.59476258 30.19140625 437.35546875 C30.08719864 436.14416794 29.98299103 434.93286713 29.87562561 433.68486023 C29.72558327 432.01590446 29.72558327 432.01590446 29.57250977 430.31323242 C29.48590591 429.33255295 29.39930206 428.35187347 29.31007385 427.34147644 C29.12712163 424.98264142 29.12712163 424.98264142 28 423 C27.35675781 423.14099121 26.71351563 423.28198242 26.05078125 423.42724609 C23.0353877 424.08377169 20.01774584 424.72937649 17 425.375 C15.989375 425.59671875 14.97875 425.8184375 13.9375 426.046875 C-1.03302173 429.22811087 -15.55713784 430.3835506 -30.8125 430.3125 C-31.64827576 430.31034485 -32.48405151 430.3081897 -33.34515381 430.30596924 C-45.44098132 430.25593748 -57.21934943 430.00661868 -69 427 C-70.2068042 426.70198486 -70.2068042 426.70198486 -71.43798828 426.39794922 C-83.37954593 423.36427092 -94.31609179 419.13450379 -105 413 C-105.60005859 412.65598145 -106.20011719 412.31196289 -106.81835938 411.95751953 C-126.40021967 400.50629534 -140.70583537 384.87283503 -153 366 C-153.65097656 365.01257813 -154.30195313 364.02515625 -154.97265625 363.0078125 C-172.1809238 335.33346879 -177.76198049 300.06895314 -171.02734375 268.27734375 C-170.69273513 266.8497024 -170.34999388 265.42394769 -170 264 C-169.81195801 263.22414551 -169.62391602 262.44829102 -169.43017578 261.64892578 C-164.29276926 241.07886451 -156.34675036 221.35840139 -148.04754639 201.89276123 C-135.5706096 172.62052695 -132.44552036 146.60725208 -134.5 114.75 C-136.84783974 77.44354827 -135.39959671 44.05829653 -109.7265625 14.37109375 C-80.92277182 -16.20302958 -36.27759081 -17.74248559 0 0 Z M17 8 C16.34 8.66 15.68 9.32 15 10 C18.465 11.98 18.465 11.98 22 14 C21.21869929 11.50447516 21.21869929 11.50447516 20 9 C19.01 8.67 18.02 8.34 17 8 Z M46 39 C47.62763773 42.76436636 47.62763773 42.76436636 50 46 C52.80114625 46.94084301 54.99722529 46.94995375 58 47 C57.37189827 44.02982306 57.37189827 44.02982306 56 41 C52.66231761 39.01543209 49.83347895 38.78094406 46 39 Z " fill="#EAF1FE" transform="translate(356,104)"/>
<path d="M0 0 C4.66147028 1.5415886 8.03517453 3.2351511 11.41796875 6.9453125 C13.99361441 13.91470665 12.37121123 22.4148261 11.65429688 29.6887207 C11.56651474 30.61849228 11.4787326 31.54826385 11.38829041 32.50621033 C11.10039525 35.54493104 10.80601492 38.58298693 10.51171875 41.62109375 C10.30946054 43.74712172 10.10768609 45.87319577 9.90637207 47.99931335 C9.37768446 53.57241558 8.84381081 59.14500734 8.30841064 64.71746826 C7.45041047 73.65309377 6.59877363 82.58932259 5.75010681 91.52583885 C5.45318386 94.6419808 5.15308479 97.75780531 4.85266113 100.87361145 C4.67054708 102.78202306 4.48853473 104.69044437 4.30664062 106.59887695 C4.22248398 107.46286102 4.13832733 108.32684509 4.05162048 109.2170105 C3.9758931 110.01719101 3.90016571 110.81737152 3.82214355 111.64179993 C3.75577446 112.33213979 3.68940536 113.02247965 3.62102509 113.7337389 C3.4622311 116.09105238 3.48046875 118.45765671 3.48046875 120.8203125 C4.47046875 111.9103125 5.46046875 103.0003125 6.48046875 93.8203125 C7.80046875 93.4903125 9.12046875 93.1603125 10.48046875 92.8203125 C13.79296875 94.8828125 13.79296875 94.8828125 16.48046875 97.8203125 C16.79918427 102.7072838 14.46359046 105.55288198 11.44140625 109.109375 C10.32371271 110.76632585 10.32371271 110.76632585 10.5 112.69921875 C11.94477522 115.82476832 14.26913025 117.87360796 16.79296875 120.1328125 C17.33276367 120.6170166 17.87255859 121.1012207 18.42871094 121.60009766 C36.56169911 137.42036595 59.5818182 139.57769521 82.49609375 142.81640625 C104.69716667 145.9625804 125.17957014 149.00718602 141.48046875 165.8203125 C142.06441406 166.39523437 142.64835937 166.97015625 143.25 167.5625 C152.01018913 176.83277609 153.98142012 188.07038513 153.74609375 200.3125 C152.98439754 218.01820301 142.43704404 234.50194707 131.48046875 247.8203125 C131.06522949 248.33561523 130.64999023 248.85091797 130.22216797 249.38183594 C100.41532227 286.25376078 57.92342277 321.17592972 14.48046875 340.8203125 C13.82046875 340.8203125 13.16046875 340.8203125 12.48046875 340.8203125 C10.87586215 338.59994949 9.38352056 336.38046668 7.91796875 334.0703125 C4.78788114 329.15650372 1.59926933 324.82828546 -2.33203125 320.5078125 C-11.03269663 309.18460613 -11.77923396 291.52375086 -11.55200195 277.74145508 C-11.49927941 272.99840835 -11.97298941 268.34304228 -12.3984375 263.62109375 C-12.51953125 260.8203125 -12.51953125 260.8203125 -11.51953125 258.8203125 C-12.17953125 258.8203125 -12.83953125 258.8203125 -13.51953125 258.8203125 C-13.86564453 257.36625 -13.86564453 257.36625 -14.21875 255.8828125 C-21.0004047 225.76175278 -21.0004047 225.76175278 -37.03515625 200.2421875 C-41.43228955 195.31786167 -42.32169682 190.19421115 -43.39453125 183.8203125 C-43.69230469 182.25796875 -43.69230469 182.25796875 -43.99609375 180.6640625 C-45.04156146 175.06939747 -45.88065095 169.4750828 -46.51953125 163.8203125 C-73.12205771 160.48874778 -99.77719544 157.7476456 -126.51953125 155.8203125 C-127.4120459 155.75569824 -128.30456055 155.69108398 -129.22412109 155.62451172 C-131.65547279 155.45251457 -134.0871716 155.2898399 -136.51953125 155.1328125 C-137.22634033 155.08431152 -137.93314941 155.03581055 -138.66137695 154.98583984 C-140.27881747 154.88920872 -141.89944884 154.84831924 -143.51953125 154.8203125 C-144.92386061 155.99750235 -144.92386061 155.99750235 -144.64453125 159.3203125 C-144.92386061 162.64312265 -144.92386061 162.64312265 -143.51953125 163.8203125 C-140.66424518 164.2206955 -137.82216638 164.5721352 -134.95703125 164.8828125 C-134.15072266 164.97369141 -133.34441406 165.06457031 -132.51367188 165.15820312 C-130.51605748 165.38278699 -128.51784565 165.60204486 -126.51953125 165.8203125 C-128.11896141 169.16648876 -129.59199967 171.46202317 -132.51953125 173.8203125 C-135.76953125 174.5703125 -135.76953125 174.5703125 -138.51953125 174.8203125 C-138.84953125 177.7903125 -139.17953125 180.7603125 -139.51953125 183.8203125 C-138.4301123 183.90071777 -137.34069336 183.98112305 -136.21826172 184.06396484 C-132.15857174 184.36563767 -128.0997095 184.67741929 -124.04101562 184.9921875 C-122.28764306 185.1267637 -120.53406059 185.2586344 -118.78027344 185.38769531 C-116.25264786 185.57418301 -113.72594868 185.77053766 -111.19921875 185.96875 C-110.42085663 186.02404877 -109.64249451 186.07934753 -108.84054565 186.13632202 C-100.2677421 186.83009041 -100.2677421 186.83009041 -96.51953125 188.8203125 C-95.26379067 191.33801319 -94.56991463 193.25159916 -93.9140625 195.93359375 C-93.7147261 196.67724686 -93.51538971 197.42089996 -93.31001282 198.18708801 C-90.88856623 207.62383972 -89.29816929 217.24657533 -87.72436523 226.85375977 C-87.20121204 230.04329072 -86.66135657 233.22967521 -86.11914062 236.41601562 C-85.77637973 238.46077614 -85.43454804 240.50569268 -85.09375 242.55078125 C-84.85479256 243.96643623 -84.85479256 243.96643623 -84.61100769 245.41069031 C-84.39496635 246.7391674 -84.39496635 246.7391674 -84.17456055 248.09448242 C-84.04752243 248.86483322 -83.92048431 249.63518402 -83.78959656 250.42887878 C-83.47215286 253.23984913 -83.47674866 255.99390287 -83.51953125 258.8203125 C-93.25908016 259.06697241 -102.82138698 258.29224482 -112.5 257.359375 C-114.12360167 257.20679509 -115.74724459 257.05465356 -117.3709259 256.90292358 C-120.75909015 256.58516652 -124.14688334 256.26379124 -127.53442383 255.93945312 C-131.82536768 255.52867411 -136.11689266 255.12442482 -140.40868664 254.72263527 C-143.75936871 254.40863761 -147.10983337 254.09237001 -150.46022987 253.77534103 C-152.03985322 253.62588984 -153.61951168 253.47680913 -155.19920921 253.32814407 C-159.57933379 252.91473892 -163.9572324 252.48404067 -168.33398056 252.03632355 C-170.61695345 251.81068368 -172.90142265 251.60949592 -175.18667603 251.40838623 C-176.70696566 251.26051266 -178.22718137 251.11187665 -179.74731445 250.96240234 C-180.43988185 250.90721247 -181.13244925 250.85202259 -181.84600353 250.79516029 C-186.71600606 250.28733334 -189.83427719 249.04777425 -193.51953125 245.8203125 C-196.6397474 240.49264293 -196.8317327 236.37325204 -196.28027344 230.45288086 C-196.22164501 229.66913306 -196.16301659 228.88538527 -196.10261154 228.07788754 C-195.98014517 226.45144123 -195.85077051 224.82550073 -195.71458435 223.20014572 C-195.53212821 220.97400739 -195.3769239 218.74842305 -195.23596191 216.51931763 C-194.71331321 208.25465513 -194.06904115 200.0007271 -193.3728981 191.74897861 C-193.02771057 187.64195756 -192.70600462 183.53580264 -192.43603516 179.4230957 C-192.170078 175.38328981 -191.84485364 171.35214111 -191.47927094 167.32017326 C-191.35179151 165.8041599 -191.24464786 164.28627227 -191.15982819 162.76727486 C-190.7196704 155.12464732 -189.74576272 149.21486106 -183.86445236 143.9377203 C-181.16729752 141.75511249 -178.38446101 139.77948053 -175.51953125 137.8203125 C-174.24307008 136.82294691 -172.97273735 135.81755857 -171.71484375 134.796875 C-170.70164062 134.02085937 -169.6884375 133.24484375 -168.64453125 132.4453125 C-162.82669681 127.94658517 -157.25306568 123.20790875 -151.75634766 118.32275391 C-140.99048977 108.8203125 -140.99048977 108.8203125 -137.51953125 108.8203125 C-137.18953125 109.1503125 -136.85953125 109.4803125 -136.51953125 109.8203125 C-136.88046875 108.94632812 -137.24140625 108.07234375 -137.61328125 107.171875 C-142.76371057 93.5232373 -143.9315538 78.7232428 -138.3671875 64.97265625 C-134.91212089 57.40213635 -130.42902928 51.63617412 -124.51953125 45.8203125 C-123.93171875 45.23378906 -123.34390625 44.64726562 -122.73828125 44.04296875 C-111.74896813 33.85711956 -97.18537022 30.98487273 -82.64453125 31.46875 C-76.86317596 31.83873544 -71.78366287 33.44598607 -66.51953125 35.8203125 C-65.73320312 36.1709375 -64.946875 36.5215625 -64.13671875 36.8828125 C-49.76703947 44.09268643 -40.6256372 56.90288726 -35.51953125 71.8203125 C-31.76476123 86.31657651 -34.95990937 101.17016093 -42.3125 113.8359375 C-42.90998047 114.81820312 -42.90998047 114.81820312 -43.51953125 115.8203125 C-44.46892578 115.57474609 -44.46892578 115.57474609 -45.4375 115.32421875 C-49.58704218 114.64577649 -53.63594623 114.71475875 -57.83203125 114.7578125 C-58.66798828 114.76232422 -59.50394531 114.76683594 -60.36523438 114.77148438 C-62.41669774 114.78320702 -64.46812398 114.80114047 -66.51953125 114.8203125 C-66.77605469 115.43777344 -67.03257812 116.05523437 -67.296875 116.69140625 C-70.51350598 123.80698387 -74.74796007 128.61458163 -80.51953125 133.8203125 C-85.33118727 131.79489319 -87.42844663 128.49795962 -89.51953125 123.8203125 C-89.90083359 121.31124895 -89.78517606 119.37050263 -89.51953125 116.8203125 C-88.88015625 116.5315625 -88.24078125 116.2428125 -87.58203125 115.9453125 C-85.36747046 114.99207799 -85.36747046 114.99207799 -84.51953125 112.8203125 C-84.44957111 111.11328515 -84.43512971 109.40363247 -84.45703125 107.6953125 C-84.46605469 106.78523438 -84.47507812 105.87515625 -84.484375 104.9375 C-84.49597656 104.23882812 -84.50757813 103.54015625 -84.51953125 102.8203125 C-85.55078125 102.9028125 -86.58203125 102.9853125 -87.64453125 103.0703125 C-92.90273631 102.73107346 -95.72039335 100.74796025 -99.26953125 96.9453125 C-103.76082046 89.31012084 -103.76233779 79.96908244 -101.7265625 71.53515625 C-99.23844151 64.299586 -99.23844151 64.299586 -95.51953125 61.8203125 C-92.59375 62.8671875 -92.59375 62.8671875 -89.20703125 64.5703125 C-85.86235837 66.23293735 -82.82284346 67.73631835 -79.21875 68.734375 C-76.51953125 69.8203125 -76.51953125 69.8203125 -75.27734375 71.984375 C-75.06851563 72.79648438 -74.8596875 73.60859375 -74.64453125 74.4453125 C-74.42023438 75.26257813 -74.1959375 76.07984375 -73.96484375 76.921875 C-73.81789063 77.54835938 -73.6709375 78.17484375 -73.51953125 78.8203125 C-72.85953125 78.8203125 -72.19953125 78.8203125 -71.51953125 78.8203125 C-71.02453125 77.3353125 -71.02453125 77.3353125 -70.51953125 75.8203125 C-68.8534122 75.7775915 -67.1857024 75.77967418 -65.51953125 75.8203125 C-64.51953125 76.8203125 -64.51953125 76.8203125 -64.20703125 79.5078125 C-64.59658403 83.63707192 -66.09553739 85.49597807 -68.51953125 88.8203125 C-72.75741832 94.81180801 -71.37145308 100.90229672 -70.51953125 107.8203125 C-62.70775825 102.96299211 -57.52960882 98.85054522 -54.51953125 89.8203125 C-52.58964329 79.12202057 -58.67201197 68.65870873 -64.08984375 59.84375 C-66.35137363 56.64300553 -67.75020335 55.07675513 -71.51953125 53.8203125 C-84.71273507 52.80223771 -84.71273507 52.80223771 -96.51953125 57.8203125 C-96.84953125 58.8103125 -97.17953125 59.8003125 -97.51953125 60.8203125 C-99.2265625 61.92578125 -99.2265625 61.92578125 -101.33203125 63.0078125 C-106.92624141 66.30619089 -108.53919801 70.87931278 -110.51953125 76.8203125 C-111.41426986 89.44697228 -110.85892096 101.99844988 -108.17578125 114.359375 C-107.53912131 117.71699825 -107.10930572 120.42662861 -107.51953125 123.8203125 C-109.26953125 126.375 -109.26953125 126.375 -111.51953125 128.6953125 C-112.26203125 129.47648438 -113.00453125 130.25765625 -113.76953125 131.0625 C-114.63578125 131.93261719 -114.63578125 131.93261719 -115.51953125 132.8203125 C-113.62620591 133.63863972 -111.72975392 134.44973518 -109.83203125 135.2578125 C-108.24841797 135.93650391 -108.24841797 135.93650391 -106.6328125 136.62890625 C-94.23064341 141.37503118 -77.59628007 140.50153512 -65.5 135.37109375 C-51.06946331 127.86267558 -40.63491237 116.62758852 -35.44140625 101.09765625 C-32.12103212 87.86423463 -32.97955293 72.83040462 -39.51953125 60.8203125 C-39.97714844 59.923125 -40.43476563 59.0259375 -40.90625 58.1015625 C-44.23674978 52.04279029 -48.46644457 47.48552898 -53.51953125 42.8203125 C-54.52403569 41.82483732 -55.52570391 40.8264473 -56.51953125 39.8203125 C-48.27486029 32.70702704 -39.9791189 25.67808474 -31.51953125 18.8203125 C-29.70608729 17.34230326 -27.89359832 15.86312159 -26.08203125 14.3828125 C-25.17582031 13.65449219 -24.26960937 12.92617187 -23.3359375 12.17578125 C-21.32243519 10.49181191 -19.43433083 8.80856762 -17.546875 6.99609375 C-11.92725128 1.71691573 -7.96393464 -1.63185962 0 0 Z " fill="#E9F0FE" transform="translate(448.51953125,155.1796875)"/>
<path d="M0 0 C0.78632813 0.350625 1.57265625 0.70125 2.3828125 1.0625 C16.75249178 8.27237393 25.89389405 21.08257476 31 36 C34.75477002 50.49626401 31.55962188 65.34984843 24.20703125 78.015625 C23.60955078 78.99789062 23.60955078 78.99789062 23 80 C22.05060547 79.75443359 22.05060547 79.75443359 21.08203125 79.50390625 C16.93248907 78.82546399 12.88358502 78.89444625 8.6875 78.9375 C7.85154297 78.94201172 7.01558594 78.94652344 6.15429688 78.95117188 C4.10283351 78.96289452 2.05140727 78.98082797 0 79 C-0.25652344 79.61746094 -0.51304687 80.23492187 -0.77734375 80.87109375 C-3.99397473 87.98667137 -8.22842882 92.79426913 -14 98 C-18.81165602 95.97458069 -20.90891538 92.67764712 -23 88 C-23.38130234 85.49093645 -23.26564481 83.55019013 -23 81 C-22.360625 80.71125 -21.72125 80.4225 -21.0625 80.125 C-18.84793921 79.17176549 -18.84793921 79.17176549 -18 77 C-17.93003986 75.29297265 -17.91559846 73.58331997 -17.9375 71.875 C-17.94652344 70.96492188 -17.95554687 70.05484375 -17.96484375 69.1171875 C-17.97644531 68.41851562 -17.98804688 67.71984375 -18 67 C-19.03125 67.0825 -20.0625 67.165 -21.125 67.25 C-26.38320506 66.91076096 -29.2008621 64.92764775 -32.75 61.125 C-37.24128921 53.48980834 -37.24280654 44.14876994 -35.20703125 35.71484375 C-32.71891026 28.4792735 -32.71891026 28.4792735 -29 26 C-26.07421875 27.046875 -26.07421875 27.046875 -22.6875 28.75 C-19.34282712 30.41262485 -16.30331221 31.91600585 -12.69921875 32.9140625 C-10 34 -10 34 -8.7578125 36.1640625 C-8.44457031 37.38222656 -8.44457031 37.38222656 -8.125 38.625 C-7.90070313 39.44226563 -7.67640625 40.25953125 -7.4453125 41.1015625 C-7.29835938 41.72804687 -7.15140625 42.35453125 -7 43 C-6.34 43 -5.68 43 -5 43 C-4.67 42.01 -4.34 41.02 -4 40 C-2.33388095 39.957279 -0.66617115 39.95936168 1 40 C2 41 2 41 2.3125 43.6875 C1.92294722 47.81675942 0.42399386 49.67566557 -2 53 C-6.23788707 58.99149551 -4.85192183 65.08198422 -4 72 C3.811773 67.14267961 8.98992243 63.03023272 12 54 C13.92988796 43.30170807 7.84751928 32.83839623 2.4296875 24.0234375 C0.16815762 20.82269303 -1.2306721 19.25644263 -5 18 C-18.19320382 16.98192521 -18.19320382 16.98192521 -30 22 C-30.495 23.485 -30.495 23.485 -31 25 C-32.70703125 26.10546875 -32.70703125 26.10546875 -34.8125 27.1875 C-40.40671016 30.48587839 -42.01966676 35.05900028 -44 41 C-44.89473861 53.62665978 -44.33938971 66.17813738 -41.65625 78.5390625 C-41.01959006 81.89668575 -40.58977447 84.60631611 -41 88 C-42.75 90.5546875 -42.75 90.5546875 -45 92.875 C-45.7425 93.65617187 -46.485 94.43734375 -47.25 95.2421875 C-48.11625 96.11230469 -48.11625 96.11230469 -49 97 C-47.10667466 97.81832722 -45.21022267 98.62942268 -43.3125 99.4375 C-42.25675781 99.88996094 -41.20101562 100.34242188 -40.11328125 100.80859375 C-27.71111216 105.55471868 -11.07674882 104.68122262 1.01953125 99.55078125 C8.81261526 95.49592627 15.03168385 90.39575524 21 84 C21.99654182 82.99655374 22.99551241 81.99549218 24 81 C26.1875 82.9375 26.1875 82.9375 28 86 C27.55412278 89.97445728 25.95222243 93.55219293 23.7644043 96.87866211 C19.67224062 103.32561981 19.37913756 108.54320058 19.6875 116.0625 C19.71005859 117.11888672 19.73261719 118.17527344 19.75585938 119.26367188 C19.81423726 121.84397439 19.89605481 124.4211998 20 127 C9.3666542 126.38396485 -1.20641848 125.42782316 -11.79953003 124.32901001 C-27.85126679 122.66797394 -43.9010829 121.13249632 -60 120 C-60.8780127 119.93683594 -61.75602539 119.87367188 -62.66064453 119.80859375 C-65.10665443 119.63542491 -67.55301947 119.47130033 -70 119.3125 C-70.70761475 119.26391846 -71.41522949 119.21533691 -72.14428711 119.1652832 C-73.7609179 119.06878329 -75.38073357 119.02799264 -77 119 C-78.40432936 120.17718985 -78.40432936 120.17718985 -78.125 123.5 C-78.40432936 126.82281015 -78.40432936 126.82281015 -77 128 C-74.14471393 128.400383 -71.30263513 128.7518227 -68.4375 129.0625 C-67.63119141 129.15337891 -66.82488281 129.24425781 -65.99414062 129.33789062 C-63.99652623 129.56247449 -61.9983144 129.78173236 -60 130 C-61.59943016 133.34617626 -63.07246842 135.64171067 -66 138 C-69.25 138.75 -69.25 138.75 -72 139 C-72.33 141.97 -72.66 144.94 -73 148 C-71.91058105 148.08040527 -70.82116211 148.16081055 -69.69873047 148.24365234 C-65.63904049 148.54532517 -61.58017825 148.85710679 -57.52148438 149.171875 C-55.76811181 149.3064512 -54.01452934 149.4383219 -52.26074219 149.56738281 C-49.73311661 149.75387051 -47.20641743 149.95022516 -44.6796875 150.1484375 C-43.90132538 150.20373627 -43.12296326 150.25903503 -42.3210144 150.31600952 C-33.74821085 151.00977791 -33.74821085 151.00977791 -30 153 C-28.74425942 155.51770069 -28.05038338 157.43128666 -27.39453125 160.11328125 C-27.19519485 160.85693436 -26.99585846 161.60058746 -26.79048157 162.36677551 C-24.36903498 171.80352722 -22.77863804 181.42626283 -21.20483398 191.03344727 C-20.68168079 194.22297822 -20.14182532 197.40936271 -19.59960938 200.59570312 C-19.25684848 202.64046364 -18.91501679 204.68538018 -18.57421875 206.73046875 C-18.33526131 208.14612373 -18.33526131 208.14612373 -18.09147644 209.59037781 C-17.8754351 210.9188549 -17.8754351 210.9188549 -17.6550293 212.27416992 C-17.52799118 213.04452072 -17.40095306 213.81487152 -17.27006531 214.60856628 C-16.95262161 217.41953663 -16.95721741 220.17359037 -17 223 C-26.73954891 223.24665991 -36.30185573 222.47193232 -45.98046875 221.5390625 C-47.60407042 221.38648259 -49.22771334 221.23434106 -50.85139465 221.08261108 C-54.2395589 220.76485402 -57.62735209 220.44347874 -61.01489258 220.11914062 C-65.30583643 219.70836161 -69.59736141 219.30411232 -73.88915539 218.90232277 C-77.23983746 218.58832511 -80.59030212 218.27205751 -83.94069862 217.95502853 C-85.52032197 217.80557734 -87.09998043 217.65649663 -88.67967796 217.50783157 C-93.05980254 217.09442642 -97.43770115 216.66372817 -101.81444931 216.21601105 C-104.0974222 215.99037118 -106.3818914 215.78918342 -108.66714478 215.58807373 C-110.18743441 215.44020016 -111.70765012 215.29156415 -113.2277832 215.14208984 C-113.9203506 215.08689997 -114.612918 215.03171009 -115.32647228 214.97484779 C-120.19647481 214.46702084 -123.31474594 213.22746175 -127 210 C-130.12021615 204.67233043 -130.31220145 200.55293954 -129.76074219 194.63256836 C-129.70211376 193.84882056 -129.64348534 193.06507277 -129.58308029 192.25757504 C-129.46061392 190.63112873 -129.33123926 189.00518823 -129.1950531 187.37983322 C-129.01259696 185.15369489 -128.85739265 182.92811055 -128.71643066 180.69900513 C-128.19378196 172.43434263 -127.5495099 164.1804146 -126.85336685 155.92866611 C-126.50817932 151.82164506 -126.18647337 147.71549014 -125.91650391 143.6027832 C-125.65054675 139.56297731 -125.32532239 135.53182861 -124.95973969 131.49986076 C-124.83226026 129.9838474 -124.72511661 128.46595977 -124.64029694 126.94696236 C-124.20013915 119.30433482 -123.22623147 113.39454856 -117.34492111 108.1174078 C-114.64776627 105.93479999 -111.86492976 103.95916803 -109 102 C-107.72353883 101.00263441 -106.4532061 99.99724607 -105.1953125 98.9765625 C-104.18210937 98.20054687 -103.16890625 97.42453125 -102.125 96.625 C-96.30716556 92.12627267 -90.73353443 87.38759625 -85.23681641 82.50244141 C-74.47095852 73 -74.47095852 73 -71 73 C-70.67 73.33 -70.34 73.66 -70 74 C-70.3609375 73.12601562 -70.721875 72.25203125 -71.09375 71.3515625 C-76.24417932 57.7029248 -77.41202255 42.9029303 -71.84765625 29.15234375 C-68.39258964 21.58182385 -63.90949803 15.81586162 -58 10 C-57.4121875 9.41347656 -56.824375 8.82695312 -56.21875 8.22265625 C-41.51529444 -5.40578251 -17.95839505 -8.09992892 0 0 Z " fill="#FCFDFE" transform="translate(382,191)"/>
<path d="M0 0 C1.24910156 0.21076172 1.24910156 0.21076172 2.5234375 0.42578125 C6.6838241 1.25388368 9.567259 2.04031017 12.4375 5.27734375 C15.65091788 10.41492517 14.63437424 15.27541022 13.921875 21.04296875 C12.74688234 29.234823 12.74688234 29.234823 15.5 36.6875 C19.37685539 40.27245098 24.17296255 40.48367073 29.25390625 40.890625 C32.70298209 41.42590085 34.61337619 42.26033002 37.375 44.375 C38.66796875 46.3828125 38.66796875 46.3828125 39.5625 48.5 C40.74888147 51.58869207 40.74888147 51.58869207 43.375 53.375 C45.47977352 53.63211931 47.59066646 53.83985966 49.703125 54.0234375 C50.97800781 54.14203125 52.25289062 54.260625 53.56640625 54.3828125 C55.59123561 54.56782229 57.61616523 54.74924719 59.64208984 54.921875 C61.60090457 55.09066393 63.55830178 55.27565212 65.515625 55.4609375 C67.27181152 55.6163501 67.27181152 55.6163501 69.06347656 55.77490234 C75.91006514 57.01560676 79.43241576 59.96802733 83.375 65.375 C86.21907285 73.90721855 83.84444347 84.20602006 82.984375 93.02734375 C82.83674902 94.56968172 82.68939587 96.11204583 82.54229736 97.6544342 C82.23227509 100.89497501 81.9192437 104.13520684 81.60400391 107.37524414 C81.21106562 111.4157852 80.82500807 115.45694489 80.44115448 119.49835777 C78.3800449 141.16125312 76.01529549 162.77509402 73.375 184.375 C73.045 184.375 72.715 184.375 72.375 184.375 C71.95632066 174.43902671 73.07545814 164.61180054 74.04176331 154.7388134 C74.34908916 151.59777459 74.64988504 148.45616784 74.94909668 145.31434631 C75.58529184 138.64650321 76.22969346 131.97946657 76.875 125.3125 C77.62329089 117.57709694 78.3681417 109.84138788 79.10536194 102.10492134 C79.40060705 99.02373373 79.70156287 95.94313951 80.00280762 92.86253357 C80.18508639 90.9577795 80.36710667 89.05300068 80.54882812 87.14819336 C80.63298477 86.30375671 80.71714142 85.45932007 80.80384827 84.58929443 C82.02884055 74.35549665 82.02884055 74.35549665 80.25 64.4375 C77.74296181 61.679758 75.91504547 60.63930195 72.375 59.375 C71.23224609 58.94960937 71.23224609 58.94960937 70.06640625 58.515625 C66.74740478 57.70683415 64.73567284 57.62316243 61.375 58.375 C56.39180924 61.44603616 52.25509537 65.71477262 48.06884766 69.765625 C45.97831372 71.75190342 43.77660349 73.54396304 41.5 75.3125 C36.81224124 79.012114 32.1808248 82.77680352 27.5625 86.5625 C26.83240723 87.15732178 26.10231445 87.75214355 25.35009766 88.36499023 C21.4865871 91.53741211 17.83495791 94.76549578 14.375 98.375 C14.87128906 98.77589844 15.36757813 99.17679687 15.87890625 99.58984375 C24.61683968 106.90185256 30.2339134 114.75086396 34.375 125.375 C34.74109375 126.24769531 35.1071875 127.12039062 35.484375 128.01953125 C38.89572983 140.87196019 37.65460881 156.66725476 31.375 168.375 C28.9785764 172.30942681 26.35598689 175.86566655 23.375 179.375 C22.43140625 180.48681641 22.43140625 180.48681641 21.46875 181.62109375 C16.5045198 187.00240067 10.96455892 190.28156817 4.375 193.375 C3.59125 193.79007813 2.8075 194.20515625 2 194.6328125 C-10.14470845 200.19913721 -26.71468073 198.91718905 -39.06640625 194.54296875 C-41.72109071 193.33113569 -44.15861713 191.93154181 -46.625 190.375 C-45.965 190.045 -45.305 189.715 -44.625 189.375 C-44.33625 188.776875 -44.0475 188.17875 -43.75 187.5625 C-42.625 185.375 -42.625 185.375 -40.546875 183.62109375 C-38.352774 181.49960036 -38.352774 181.49960036 -38.3828125 178.4921875 C-38.50398438 177.42226563 -38.62515625 176.35234375 -38.75 175.25 C-38.85570312 174.19554687 -38.96140625 173.14109375 -39.0703125 172.0546875 C-39.49833616 169.21526294 -40.03564771 166.49640592 -40.65625 163.69921875 C-41.84142406 157.89504533 -41.9925339 152.22192191 -42 146.3125 C-42.02449219 145.28833984 -42.04898438 144.26417969 -42.07421875 143.20898438 C-42.10579473 134.97291671 -40.4908366 128.82870051 -35.1875 122.4375 C-32.625 120.375 -32.625 120.375 -29.875 119.3125 C-28.76125 118.8484375 -28.76125 118.8484375 -27.625 118.375 C-27.47546875 117.74207031 -27.3259375 117.10914063 -27.171875 116.45703125 C-26.625 114.375 -26.625 114.375 -23.625 112.125 C-19.15031609 110.06289612 -14.78186488 109.97673399 -9.9375 109.9375 C-9.20080078 109.92750977 -8.46410156 109.91751953 -7.70507812 109.90722656 C-2.21571857 109.99431976 1.09087995 111.09649204 4.96484375 114.9609375 C11.89886817 124.16610614 17.96278384 135.55893423 16.375 147.375 C14.00181293 154.64981643 9.80375619 160.19566944 3.375 164.375 C1.12890625 165.05859375 1.12890625 165.05859375 -0.625 165.375 C-3.56481666 154.53442607 -3.56481666 154.53442607 -1.6015625 150.0234375 C-1.15554688 149.27320313 -0.70953125 148.52296875 -0.25 147.75 C0.19085938 146.99460938 0.63171875 146.23921875 1.0859375 145.4609375 C2.14728146 143.74349 3.25509933 142.05485101 4.375 140.375 C4.54199232 137.24978167 4.54199232 137.24978167 4.375 134.375 C2.725 134.375 1.075 134.375 -0.625 134.375 C-0.955 135.035 -1.285 135.695 -1.625 136.375 C-2.285 136.375 -2.945 136.375 -3.625 136.375 C-3.79773438 135.76011719 -3.97046875 135.14523438 -4.1484375 134.51171875 C-5.84048896 129.4827137 -5.84048896 129.4827137 -9.80078125 126.25 C-11.50228315 125.78427009 -13.21741765 125.366188 -14.94140625 124.9921875 C-19.08828311 124.03846618 -22.79724591 122.19641922 -26.625 120.375 C-27.2759259 121.62235567 -27.92051669 122.87301832 -28.5625 124.125 C-28.92214844 124.82109375 -29.28179687 125.5171875 -29.65234375 126.234375 C-32.79560347 133.1520711 -32.73408473 141.86894719 -30.94140625 149.15234375 C-28.93073123 154.16651672 -26.63793295 157.01597273 -21.625 159.375 C-19.29902489 159.7563074 -16.96587842 160.09960254 -14.625 160.375 C-13.02856588 163.56786823 -13.11129549 166.90920693 -13.625 170.375 C-15.5 172.875 -15.5 172.875 -17.625 174.375 C-18.285 174.375 -18.945 174.375 -19.625 174.375 C-18.63900312 180.21313939 -17.573143 184.84624773 -13.625 189.375 C-9.83603889 189.74567551 -9.83603889 189.74567551 -7.9140625 188.23046875 C-2.91630781 183.22098224 0.25367685 177.69768024 3.375 171.375 C6.27089652 171.34793555 9.16653795 171.32812971 12.0625 171.3125 C12.87912109 171.30412109 13.69574219 171.29574219 14.53710938 171.28710938 C18.61999084 171.27057949 22.39151707 171.34464902 26.375 172.375 C33.55842802 157.75966059 37.32669354 143.74435204 32.8125 127.625 C27.68692574 113.11153183 19.2394313 102.22589934 5.375 95.375 C1.75332853 93.88735804 -1.90167449 92.58306734 -5.625 91.375 C-7.11 90.88 -7.11 90.88 -8.625 90.375 C-25.07702112 89.4440913 -39.94782564 91.48725779 -52.8125 102.625 C-64.00511812 113.27377617 -70.47259649 124.89269549 -70.96704102 140.54248047 C-71.11194693 150.52274101 -69.26096724 158.10030324 -65.625 167.375 C-65.26247224 168.70069322 -64.91297019 170.03113912 -64.625 171.375 C-66.125 170 -66.125 170 -67.625 168.375 C-67.625 167.715 -67.625 167.055 -67.625 166.375 C-71.90156064 169.11785362 -75.79028547 172.10114262 -79.625 175.4375 C-84.15996035 179.33377041 -88.76966261 183.09382666 -93.5 186.75 C-99.46343093 191.36600603 -105.17516689 196.23315561 -110.82763672 201.22412109 C-115.4335896 205.2792948 -115.4335896 205.2792948 -117.625 206.375 C-118.05742679 208.95097414 -118.35725938 211.44406426 -118.58642578 214.04077148 C-118.6647464 214.84415451 -118.74306702 215.64753754 -118.82376099 216.4752655 C-119.08186022 219.14808164 -119.32627935 221.82195942 -119.5703125 224.49609375 C-119.74612771 226.35407425 -119.9226407 228.21198885 -120.099823 230.06983948 C-120.47034208 233.97596893 -120.83449294 237.88262285 -121.19384766 241.78979492 C-121.6527422 246.77706241 -122.12385781 251.76307489 -122.59941292 256.74877834 C-122.96524876 260.59278839 -123.32614066 264.4372497 -123.68542099 268.28187752 C-123.85733472 270.1186272 -124.03036426 271.95527281 -124.20456314 273.79180717 C-125.45770497 287.05803421 -125.45770497 287.05803421 -125.625 300.375 C-126.285 300.045 -126.945 299.715 -127.625 299.375 C-128.0657872 286.41355155 -126.7214933 273.63718681 -125.5 260.75 C-125.27369317 258.31301742 -125.04770761 255.87600499 -124.82202148 253.43896484 C-123.07666976 234.70623717 -121.2043742 215.98637882 -119.30978394 197.26824951 C-117.42985711 178.68860517 -115.64523126 160.10246473 -113.94158936 141.50601196 C-113.62812762 138.08607339 -113.31218956 134.66636956 -112.99521828 131.24675465 C-112.68358148 127.88462262 -112.37283362 124.52240879 -112.0625 121.16015625 C-112.00168621 120.50130369 -111.94087242 119.84245113 -111.87821579 119.16363335 C-111.09819936 110.69769307 -110.35017279 102.22964084 -109.63304138 93.75814819 C-109.22021702 88.91300867 -108.79154578 84.06934631 -108.36013794 79.22583008 C-108.16411233 76.97779641 -107.97566466 74.72908706 -107.79537964 72.47973633 C-107.54811163 69.39984702 -107.27502808 66.3232527 -106.99609375 63.24609375 C-106.93160034 62.35651474 -106.86710693 61.46693573 -106.80065918 60.55039978 C-106.0773249 53.07237592 -103.37141973 47.87729353 -97.8125 42.8125 C-91.73492405 39.84559733 -84.12741253 41.66522962 -77.625 42.375 C-75.8699039 42.55189834 -74.11469146 42.72764553 -72.359375 42.90234375 C-67.77800908 43.36590408 -63.201156 43.86266949 -58.625 44.375 C-58.20541016 43.22451172 -58.20541016 43.22451172 -57.77734375 42.05078125 C-56.19656228 38.3801531 -54.18899195 36.1068997 -50.625 34.375 C-42.7048637 33.10258466 -34.42481882 34.98616104 -26.625 36.375 C-26.57311523 35.71290527 -26.52123047 35.05081055 -26.46777344 34.36865234 C-25.89332177 27.51969824 -25.03357366 20.77391857 -23.875 14 C-23.730625 13.04222656 -23.58625 12.08445312 -23.4375 11.09765625 C-22.6860239 6.7403069 -21.97786266 3.88177084 -19.421875 0.2109375 C-13.59974249 -3.61085339 -6.46515379 -1.28292895 0 0 Z M-5.625 14.375 C-6.285 15.035 -6.945 15.695 -7.625 16.375 C-4.16 18.355 -4.16 18.355 -0.625 20.375 C-1.40630071 17.87947516 -1.40630071 17.87947516 -2.625 15.375 C-3.615 15.045 -4.605 14.715 -5.625 14.375 Z M23.375 45.375 C25.00263773 49.13936636 25.00263773 49.13936636 27.375 52.375 C30.17614625 53.31584301 32.37222529 53.32495375 35.375 53.375 C34.74689827 50.40482306 34.74689827 50.40482306 33.375 47.375 C30.03731761 45.39043209 27.20847895 45.15594406 23.375 45.375 Z " fill="#6594FE" transform="translate(378.625,97.625)"/>
<path d="M0 0 C-2.38532843 6.17878646 -5.41395495 10.58499422 -11.3125 13.8125 C-12.199375 14.204375 -13.08625 14.59625 -14 15 C-14.33 15.66 -14.66 16.32 -15 17 C-2.63406847 17.21410824 -2.63406847 17.21410824 8 12 C9.62625402 9.43042038 10.89412164 6.82994959 12 4 C12.99 4.33 13.98 4.66 15 5 C15.33 3.35 15.66 1.7 16 0 C247.52240954 -2.38834417 247.52240954 -2.38834417 277 15 C277.73950195 17.1015625 277.73950195 17.1015625 278 19 C272.31807594 21.7360291 266.89793086 23.00083066 260.6875 24 C259.64029785 24.16878662 258.5930957 24.33757324 257.51416016 24.51147461 C205.4034616 32.4892971 151.5844182 32.59440219 99 34 C97.89841553 34.03029297 96.79683105 34.06058594 95.66186523 34.09179688 C22.20188319 36.09783446 -51.54140307 36.02007112 -125 34 C-126.18150635 33.96841797 -127.3630127 33.93683594 -128.58032227 33.90429688 C-173.1343942 32.7082931 -217.72797085 31.1382494 -262.125 27.0625 C-262.95388733 26.98904358 -263.78277466 26.91558716 -264.63677979 26.83990479 C-273.85260767 26.00927974 -282.90815486 24.77377822 -291.9921875 22.99609375 C-292.84821564 22.83021255 -293.70424377 22.66433136 -294.58621216 22.49342346 C-295.38131195 22.32986862 -296.17641174 22.16631378 -296.99560547 21.99780273 C-297.69765106 21.85382553 -298.39969666 21.70984833 -299.12301636 21.56150818 C-301 21 -301 21 -304 19 C-303.7043457 17.1015625 -303.7043457 17.1015625 -303 15 C-296.44762489 11.74338346 -289.50766628 10.94223003 -282.3125 10 C-280.39908813 9.74682007 -280.39908813 9.74682007 -278.44702148 9.48852539 C-193.10748574 -1.50702208 -105.25265017 -0.34054539 0 0 Z " fill="#F4F4F4" transform="translate(388,607)"/>
<path d="M0 0 C1.45252567 0.09396369 2.90427291 0.20040739 4.35522461 0.31616211 C5.15223785 0.37195435 5.9492511 0.42774658 6.77041626 0.48522949 C9.43382554 0.67606716 12.0955687 0.88397221 14.75756836 1.09350586 C16.61864917 1.23344061 18.47973322 1.37333242 20.34082031 1.51318359 C35.37369277 2.66908203 50.38104307 4.08884482 65.38256836 5.59350586 C66.98432419 5.75183395 66.98432419 5.75183395 68.61843872 5.9133606 C71.66954502 6.21719727 74.71951063 6.53053403 77.76928711 6.84741211 C78.67176178 6.93696167 79.57423645 7.02651123 80.50405884 7.11877441 C85.44593459 7.64634374 89.96114947 8.50868671 94.69506836 10.03100586 C94.8057666 10.68061279 94.91646484 11.33021973 95.03051758 11.99951172 C95.54139869 14.989575 96.05571217 17.97903849 96.57006836 20.96850586 C96.7440918 21.99008789 96.91811523 23.01166992 97.09741211 24.06420898 C97.61362771 27.05634756 98.14842131 30.04428609 98.69506836 33.03100586 C98.92842896 34.33739014 98.92842896 34.33739014 99.16650391 35.67016602 C100.2461428 41.2186374 100.2461428 41.2186374 103.75756836 45.53100586 C116.85052034 59.25263821 126.69506836 86.14978542 126.69506836 105.03100586 C127.35506836 105.03100586 128.01506836 105.03100586 128.69506836 105.03100586 C128.86828181 107.38485292 129.03485944 109.73875738 129.19506836 112.09350586 C129.27096191 113.18888672 129.27096191 113.18888672 129.34838867 114.30639648 C129.64122634 118.91609964 129.63384088 123.41132288 129.44506836 128.03100586 C129.44506836 145.97731518 133.35435131 160.93463807 145.3137207 174.42993164 C147.21491893 176.6335474 148.83995769 178.9811012 150.44506836 181.40600586 C150.89366211 182.07374023 151.34225586 182.74147461 151.80444336 183.42944336 C152.69506836 185.03100586 152.69506836 185.03100586 152.69506836 187.03100586 C153.35506836 187.03100586 154.01506836 187.03100586 154.69506836 187.03100586 C156.02963208 188.96118633 157.21275246 190.87665735 158.38256836 192.90600586 C158.95056152 193.87207764 158.95056152 193.87207764 159.5300293 194.85766602 C160.92768236 197.24346523 162.31156635 199.63697256 163.69506836 202.03100586 C164.29206543 203.05967773 164.8890625 204.08834961 165.50415039 205.14819336 C168.75912239 210.75756515 172.00629692 216.37140051 175.24194336 221.99194336 C175.83402588 223.019729 176.4261084 224.04751465 177.03613281 225.10644531 C178.53569647 227.75004694 179.97667549 230.41755112 181.40991211 233.09741211 C183.10555772 236.16168099 184.7008618 238.42495574 187.50756836 240.59350586 C190.47369184 243.01931083 193.31945807 245.4852681 196.07006836 248.15600586 C196.71717773 248.77733398 197.36428711 249.39866211 198.03100586 250.03881836 C199.88102089 252.25362509 200.76457172 254.31470759 201.69506836 257.03100586 C198.2591167 255.50391623 195.57594382 253.43173541 192.69506836 251.03100586 C192.87424805 251.73225586 193.05342773 252.43350586 193.23803711 253.15600586 C194.43835265 258.51014065 195.36550759 262.93629095 193.01538086 268.03881836 C190.22301167 272.25215648 186.73984203 276.00268311 182.69506836 279.03100586 C181.37506836 279.03100586 180.05506836 279.03100586 178.69506836 279.03100586 C179.04569336 277.77288086 179.39631836 276.51475586 179.75756836 275.21850586 C180.9778545 269.59992217 180.67820084 264.66865616 179.69506836 259.03100586 C179.47850586 257.64268555 179.47850586 257.64268555 179.25756836 256.22631836 C176.85726618 246.16141491 169.53286456 239.96684648 162.48510742 232.88061523 C159.34836671 229.63948762 156.6041703 226.12523789 153.79663086 222.59741211 C151.5465721 219.84966378 149.17526365 217.2570867 146.75756836 214.65600586 C141.81078987 209.27409407 137.39643459 203.57138569 133.0012207 197.74438477 C130.32008521 194.22733637 127.55866454 190.77197649 124.80078125 187.31494141 C123.41620267 185.56564976 122.05663687 183.79826531 120.69506836 182.03100586 C120.06632813 181.24443604 119.43758789 180.45786621 118.78979492 179.64746094 C113.32168811 172.55255987 109.90757064 165.29838854 106.69506836 156.96850586 C106.20651367 155.74711914 105.71795898 154.52573242 105.21459961 153.26733398 C101.69506836 144.37977818 101.69506836 144.37977818 101.69506836 142.03100586 C97.48637585 143.32150416 93.27817872 144.61361065 89.07006836 145.90600586 C87.88026367 146.27081055 86.69045898 146.63561523 85.46459961 147.01147461 C84.31088867 147.3659668 83.15717773 147.72045898 81.96850586 148.08569336 C80.91066895 148.41037598 79.85283203 148.73505859 78.76293945 149.06958008 C76.69835466 149.71659066 74.64844135 150.41218586 72.61547852 151.15258789 C69.78957087 152.00258084 67.62192679 152.203174 64.69506836 152.03100586 C63.69614395 145.94409491 62.69927961 139.8568516 61.7043457 133.76928711 C61.36539794 131.69725361 61.02588161 129.62531303 60.68579102 127.5534668 C60.19781333 124.5800751 59.71186332 121.60635815 59.22631836 118.63256836 C59.0732019 117.70231842 58.92008545 116.77206848 58.7623291 115.81362915 C58.62218384 114.95288788 58.48203857 114.09214661 58.33764648 113.20532227 C58.21329224 112.44587311 58.08893799 111.68642395 57.96081543 110.90396118 C57.69506836 109.03100586 57.69506836 109.03100586 57.69506836 107.03100586 C56.97579163 107.05090073 56.25651489 107.07079559 55.51544189 107.09129333 C45.5208 107.24055917 35.73732072 106.32213127 25.80444336 105.31616211 C24.00617674 105.13865925 22.20785607 104.96170318 20.40948486 104.78526306 C15.71073222 104.32273188 11.01277431 103.85256697 6.31494141 103.38079834 C1.54369843 102.90316668 -3.22831738 102.43338785 -8.00024414 101.96264648 C-14.98792852 101.2718627 -21.97539435 100.57894438 -28.9621582 99.87890625 C-29.6761377 99.80769562 -30.39011719 99.73648499 -31.12573242 99.66311646 C-33.18585977 99.45609906 -35.24538667 99.24373104 -37.30493164 99.03100586 C-38.10817116 98.95152143 -38.91141068 98.87203701 -39.73899078 98.79014397 C-40.94517185 98.66573024 -40.94517185 98.66573024 -42.17572021 98.5388031 C-42.90779064 98.46492591 -43.63986107 98.39104872 -44.39411545 98.31493282 C-47.98435515 97.78146139 -50.32137714 95.99888223 -53.30493164 94.03100586 C-53.30493164 93.37100586 -53.30493164 92.71100586 -53.30493164 92.03100586 C-52.7372406 92.33964066 -52.16954956 92.64827545 -51.58465576 92.96626282 C-44.13759602 96.44440518 -34.98289147 96.63102552 -26.91430664 97.45678711 C-25.11240875 97.64535027 -25.11240875 97.64535027 -23.27410889 97.83772278 C-8.15125325 99.39378712 6.99433454 100.70582684 22.13989258 102.01837158 C26.05689946 102.35844428 29.97362548 102.70172273 33.89038086 103.04467773 C41.49168214 103.7098063 49.09327041 104.37157524 56.69506836 105.03100586 C55.47169812 97.67406072 54.2377263 90.31895763 52.99080276 82.96596909 C52.41190494 79.55032047 51.83645225 76.13417078 51.26928711 72.71655273 C50.61461807 68.77264316 49.94422694 64.83153938 49.27319336 60.89038086 C48.97605438 59.0802652 48.97605438 59.0802652 48.6729126 57.23358154 C47.34849659 49.54636411 45.38205845 42.35431362 42.69506836 35.03100586 C32.01684699 33.55489879 21.34539788 32.52800568 10.59545898 31.72875977 C9.5996582 31.65189941 8.60385742 31.57503906 7.57788086 31.49584961 C6.68472168 31.43002686 5.7915625 31.3642041 4.87133789 31.29638672 C2.69506836 31.03100586 2.69506836 31.03100586 0.69506836 30.03100586 C0.69506836 27.06100586 0.69506836 24.09100586 0.69506836 21.03100586 C2.61564128 20.44506836 4.53621419 19.85913086 6.45678711 19.27319336 C9.71496948 17.46498744 11.42096874 14.97020993 13.69506836 12.03100586 C12.49108398 11.98202148 11.28709961 11.93303711 10.04663086 11.88256836 C8.47108638 11.80754243 6.8955667 11.73199453 5.32006836 11.65600586 C4.52600586 11.62506836 3.73194336 11.59413086 2.91381836 11.56225586 C-3.07836914 11.25756836 -3.07836914 11.25756836 -5.30493164 9.03100586 C-5.55493164 5.53100586 -5.55493164 5.53100586 -5.30493164 2.03100586 C-3.30493164 0.03100586 -3.30493164 0.03100586 0 0 Z " fill="#DFE4EC" transform="translate(308.304931640625,308.968994140625)"/>
<path d="M0 0 C4.66147028 1.5415886 8.03517453 3.2351511 11.41796875 6.9453125 C13.99120728 13.90819324 12.37427576 22.41213708 11.67358398 29.68286133 C11.58714787 30.61853848 11.50071177 31.55421564 11.41165638 32.51824665 C11.12529273 35.60505094 10.83227899 38.69118348 10.5390625 41.77734375 C10.33362284 43.97375351 10.12853208 46.17019594 9.92376709 48.3666687 C9.37486008 54.23985036 8.81976167 60.11243127 8.26317978 65.98488998 C7.91719739 69.64096366 7.57309598 73.29720946 7.22964478 76.95352173 C4.29498374 108.19170962 1.27038259 139.41870944 -1.96635056 170.62705326 C-3.40198414 184.47948556 -4.77450252 198.33353426 -5.98828125 212.20703125 C-6.04645208 212.87019789 -6.10462292 213.53336452 -6.1645565 214.21662712 C-6.76601645 221.08158238 -7.35407114 227.94746773 -7.9230957 234.81518555 C-8.10755753 236.98095934 -8.2920449 239.14673096 -8.4765625 241.3125 C-8.55334229 242.28180954 -8.63012207 243.25111908 -8.70922852 244.24980164 C-9.14940465 249.35603313 -9.91742946 253.94747953 -11.51953125 258.8203125 C-12.17953125 258.8203125 -12.83953125 258.8203125 -13.51953125 258.8203125 C-13.86564453 257.36625 -13.86564453 257.36625 -14.21875 255.8828125 C-21.03459915 225.76398233 -21.03459915 225.76398233 -37.0390625 200.1796875 C-41.21711927 195.48432655 -42.2695025 190.90729088 -43.33203125 184.8203125 C-43.53014404 183.78519531 -43.72825684 182.75007812 -43.93237305 181.68359375 C-45.96316424 170.48342147 -46.9583954 159.18108681 -47.51953125 147.8203125 C-47.58076172 147.10391602 -47.64199219 146.38751953 -47.70507812 145.64941406 C-48.03287992 139.95733043 -46.14275033 136.34114826 -43.39453125 131.5703125 C-41.91781692 128.9992047 -40.699609 126.55999049 -39.51953125 123.8203125 C-40.09178392 121.55023406 -40.09178392 121.55023406 -41.51953125 119.8203125 C-42.55296105 117.17873939 -42.68253933 116.23426724 -41.62890625 113.55859375 C-40.95601563 112.35783203 -40.95601563 112.35783203 -40.26953125 111.1328125 C-35.59277781 102.72841147 -33.95746982 95.15243759 -34.01953125 85.5703125 C-34.02452637 84.55686768 -34.02952148 83.54342285 -34.03466797 82.49926758 C-34.22488974 74.30464471 -35.56244771 68.08714666 -39.51953125 60.8203125 C-39.97714844 59.923125 -40.43476563 59.0259375 -40.90625 58.1015625 C-44.23674978 52.04279029 -48.46644457 47.48552898 -53.51953125 42.8203125 C-54.52403569 41.82483732 -55.52570391 40.8264473 -56.51953125 39.8203125 C-48.27486029 32.70702704 -39.9791189 25.67808474 -31.51953125 18.8203125 C-29.70608729 17.34230326 -27.89359832 15.86312159 -26.08203125 14.3828125 C-24.72271484 13.29033203 -24.72271484 13.29033203 -23.3359375 12.17578125 C-21.32243519 10.49181191 -19.43433083 8.80856762 -17.546875 6.99609375 C-11.92725128 1.71691573 -7.96393464 -1.63185962 0 0 Z " fill="#FCFDFE" transform="translate(448.51953125,155.1796875)"/>
<path d="M0 0 C1.24910156 0.21076172 1.24910156 0.21076172 2.5234375 0.42578125 C6.6838241 1.25388368 9.567259 2.04031017 12.4375 5.27734375 C15.65091788 10.41492517 14.63437424 15.27541022 13.921875 21.04296875 C12.74688234 29.234823 12.74688234 29.234823 15.5 36.6875 C19.37685539 40.27245098 24.17296255 40.48367073 29.25390625 40.890625 C32.70298209 41.42590085 34.61337619 42.26033002 37.375 44.375 C38.66796875 46.3828125 38.66796875 46.3828125 39.5625 48.5 C40.74888147 51.58869207 40.74888147 51.58869207 43.375 53.375 C45.47977352 53.63211931 47.59066646 53.83985966 49.703125 54.0234375 C50.97800781 54.14203125 52.25289063 54.260625 53.56640625 54.3828125 C55.59123561 54.56782229 57.61616523 54.74924719 59.64208984 54.921875 C61.60090457 55.09066393 63.55830178 55.27565212 65.515625 55.4609375 C67.27181152 55.6163501 67.27181152 55.6163501 69.06347656 55.77490234 C75.91006514 57.01560676 79.43241576 59.96802733 83.375 65.375 C86.21907285 73.90721855 83.84444347 84.20602006 82.984375 93.02734375 C82.83674902 94.56968172 82.68939587 96.11204583 82.54229736 97.6544342 C82.23227509 100.89497501 81.9192437 104.13520684 81.60400391 107.37524414 C81.21106562 111.4157852 80.82500807 115.45694489 80.44115448 119.49835777 C78.3800449 141.16125312 76.01529549 162.77509402 73.375 184.375 C73.045 184.375 72.715 184.375 72.375 184.375 C71.95632066 174.43902671 73.07545814 164.61180054 74.04176331 154.7388134 C74.34908916 151.59777459 74.64988504 148.45616784 74.94909668 145.31434631 C75.58529184 138.64650321 76.22969346 131.97946657 76.875 125.3125 C77.62329089 117.57709694 78.3681417 109.84138788 79.10536194 102.10492134 C79.40060705 99.02373373 79.70156287 95.94313951 80.00280762 92.86253357 C80.18508639 90.9577795 80.36710667 89.05300068 80.54882812 87.14819336 C80.63298477 86.30375671 80.71714142 85.45932007 80.80384827 84.58929443 C82.02884055 74.35549665 82.02884055 74.35549665 80.25 64.4375 C77.74296181 61.679758 75.91504547 60.63930195 72.375 59.375 C71.61316406 59.09140625 70.85132813 58.8078125 70.06640625 58.515625 C66.74740478 57.70683415 64.73567284 57.62316243 61.375 58.375 C56.39180924 61.44603616 52.25509537 65.71477262 48.06884766 69.765625 C45.97831372 71.75190342 43.77660349 73.54396304 41.5 75.3125 C36.81224124 79.012114 32.1808248 82.77680352 27.5625 86.5625 C26.83240723 87.15732178 26.10231445 87.75214355 25.35009766 88.36499023 C21.4865871 91.53741211 17.83495791 94.76549578 14.375 98.375 C14.87128906 98.77589844 15.36757813 99.17679687 15.87890625 99.58984375 C24.61683968 106.90185256 30.2339134 114.75086396 34.375 125.375 C34.74109375 126.24769531 35.1071875 127.12039062 35.484375 128.01953125 C38.89572983 140.87196019 37.65460881 156.66725476 31.375 168.375 C28.9785764 172.30942681 26.35598689 175.86566655 23.375 179.375 C22.43140625 180.48681641 22.43140625 180.48681641 21.46875 181.62109375 C16.5045198 187.00240067 10.96455892 190.28156817 4.375 193.375 C3.59125 193.79007813 2.8075 194.20515625 2 194.6328125 C-10.14470845 200.19913721 -26.71468073 198.91718905 -39.06640625 194.54296875 C-41.72109071 193.33113569 -44.15861713 191.93154181 -46.625 190.375 C-45.965 190.045 -45.305 189.715 -44.625 189.375 C-44.33625 188.776875 -44.0475 188.17875 -43.75 187.5625 C-42.625 185.375 -42.625 185.375 -40.546875 183.62109375 C-38.352774 181.49960036 -38.352774 181.49960036 -38.3828125 178.4921875 C-38.50398438 177.42226563 -38.62515625 176.35234375 -38.75 175.25 C-38.85570312 174.19554687 -38.96140625 173.14109375 -39.0703125 172.0546875 C-39.49833616 169.21526294 -40.03564771 166.49640592 -40.65625 163.69921875 C-41.84142406 157.89504533 -41.9925339 152.22192191 -42 146.3125 C-42.02449219 145.28833984 -42.04898437 144.26417969 -42.07421875 143.20898438 C-42.10579473 134.97291671 -40.4908366 128.82870051 -35.1875 122.4375 C-32.625 120.375 -32.625 120.375 -29.875 119.3125 C-29.1325 119.003125 -28.39 118.69375 -27.625 118.375 C-27.47546875 117.74207031 -27.3259375 117.10914063 -27.171875 116.45703125 C-26.625 114.375 -26.625 114.375 -23.625 112.125 C-19.15031609 110.06289612 -14.78186488 109.97673399 -9.9375 109.9375 C-9.20080078 109.92750977 -8.46410156 109.91751953 -7.70507812 109.90722656 C-2.21571857 109.99431976 1.09087995 111.09649204 4.96484375 114.9609375 C11.89886817 124.16610614 17.96278384 135.55893423 16.375 147.375 C14.00181293 154.64981643 9.80375619 160.19566944 3.375 164.375 C1.12890625 165.05859375 1.12890625 165.05859375 -0.625 165.375 C-3.56481666 154.53442607 -3.56481666 154.53442607 -1.6015625 150.0234375 C-1.15554688 149.27320313 -0.70953125 148.52296875 -0.25 147.75 C0.19085938 146.99460938 0.63171875 146.23921875 1.0859375 145.4609375 C2.14728146 143.74349 3.25509933 142.05485101 4.375 140.375 C4.54199232 137.24978167 4.54199232 137.24978167 4.375 134.375 C2.725 134.375 1.075 134.375 -0.625 134.375 C-0.955 135.035 -1.285 135.695 -1.625 136.375 C-2.285 136.375 -2.945 136.375 -3.625 136.375 C-3.79773438 135.76011719 -3.97046875 135.14523438 -4.1484375 134.51171875 C-5.84048896 129.4827137 -5.84048896 129.4827137 -9.80078125 126.25 C-11.50228315 125.78427009 -13.21741765 125.366188 -14.94140625 124.9921875 C-19.08828311 124.03846618 -22.79724591 122.19641922 -26.625 120.375 C-27.2759259 121.62235567 -27.92051669 122.87301832 -28.5625 124.125 C-28.92214844 124.82109375 -29.28179687 125.5171875 -29.65234375 126.234375 C-32.79560347 133.1520711 -32.73408473 141.86894719 -30.94140625 149.15234375 C-28.93073123 154.16651672 -26.63793295 157.01597273 -21.625 159.375 C-19.29902489 159.7563074 -16.96587842 160.09960254 -14.625 160.375 C-13.02856588 163.56786823 -13.11129549 166.90920693 -13.625 170.375 C-15.5 172.875 -15.5 172.875 -17.625 174.375 C-18.285 174.375 -18.945 174.375 -19.625 174.375 C-18.63900312 180.21313939 -17.573143 184.84624773 -13.625 189.375 C-9.83603889 189.74567551 -9.83603889 189.74567551 -7.9140625 188.23046875 C-2.91630781 183.22098224 0.25367685 177.69768024 3.375 171.375 C6.27089652 171.34793555 9.16653795 171.32812971 12.0625 171.3125 C12.87912109 171.30412109 13.69574219 171.29574219 14.53710938 171.28710938 C18.61999084 171.27057949 22.39151707 171.34464902 26.375 172.375 C33.55842802 157.75966059 37.32669354 143.74435204 32.8125 127.625 C27.58739294 112.82969684 19.1835482 102.6718248 5.375 95.375 C4.22 94.859375 3.065 94.34375 1.875 93.8125 C-1.27227124 92.00281904 -1.30563114 90.67583857 -2.625 87.375 C-4.24378673 85.25485666 -4.24378673 85.25485666 -6.1875 83.25 C-9.21370753 79.9516515 -12.11878398 76.60276832 -14.9375 73.125 C-18.83516234 68.32058983 -22.807494 63.58669138 -26.81958008 58.87792969 C-28.84457745 56.49733576 -30.82001333 54.11571674 -32.69921875 51.6171875 C-34.62944699 49.36982236 -35.98726087 48.58166544 -38.625 47.375 C-26.73084301 46.98074197 -15.01402156 48.19501066 -3.1875 49.3125 C-0.2166316 49.5883923 2.75438747 49.86258363 5.72549438 50.13589478 C7.63784688 50.31186676 9.55010123 50.48890902 11.46224976 50.66708374 C17.94037293 51.26483369 24.41542054 51.75203048 30.91040039 52.13110352 C33.375 52.375 33.375 52.375 35.375 53.375 C34.385 50.405 34.385 50.405 33.375 47.375 C25.39420915 45.72766241 17.50605861 44.86622453 9.375 44.375 C9.0965625 45.3340625 9.0965625 45.3340625 8.8125 46.3125 C7.375 48.375 7.375 48.375 4.4453125 49.2265625 C-0.70247691 49.67709404 -5.70170367 48.67092756 -10.75 47.75 C-11.72582031 47.59660156 -12.70164062 47.44320312 -13.70703125 47.28515625 C-17.99517486 46.51878952 -21.10216725 45.70771175 -24.8046875 43.3515625 C-29.49550514 35.6811697 -25.95835911 24.88409629 -24.4375 16.5625 C-24.24091797 15.36173828 -24.04433594 14.16097656 -23.84179688 12.92382812 C-22.07861381 3.18563244 -22.07861381 3.18563244 -19.38671875 0.05078125 C-13.49011182 -3.52721645 -6.43009279 -1.27597154 0 0 Z M-5.625 14.375 C-6.285 15.035 -6.945 15.695 -7.625 16.375 C-4.16 18.355 -4.16 18.355 -0.625 20.375 C-1.40630071 17.87947516 -1.40630071 17.87947516 -2.625 15.375 C-3.615 15.045 -4.605 14.715 -5.625 14.375 Z " fill="#437CFE" transform="translate(378.625,97.625)"/>
<path d="M0 0 C1.17949219 0.5259375 1.17949219 0.5259375 2.3828125 1.0625 C16.75249178 8.27237393 25.89389405 21.08257476 31 36 C34.75477002 50.49626401 31.55962188 65.34984843 24.20703125 78.015625 C23.80871094 78.67046875 23.41039062 79.3253125 23 80 C22.36707031 79.83628906 21.73414063 79.67257812 21.08203125 79.50390625 C16.93248907 78.82546399 12.88358502 78.89444625 8.6875 78.9375 C7.85154297 78.94201172 7.01558594 78.94652344 6.15429688 78.95117188 C4.10283351 78.96289452 2.05140727 78.98082797 0 79 C-0.25652344 79.61746094 -0.51304687 80.23492187 -0.77734375 80.87109375 C-3.99397473 87.98667137 -8.22842882 92.79426913 -14 98 C-18.81165602 95.97458069 -20.90891538 92.67764712 -23 88 C-23.38130234 85.49093645 -23.26564481 83.55019013 -23 81 C-22.360625 80.71125 -21.72125 80.4225 -21.0625 80.125 C-18.84793921 79.17176549 -18.84793921 79.17176549 -18 77 C-17.93003986 75.29297265 -17.91559846 73.58331997 -17.9375 71.875 C-17.94652344 70.96492188 -17.95554687 70.05484375 -17.96484375 69.1171875 C-17.97644531 68.41851562 -17.98804688 67.71984375 -18 67 C-19.03125 67.0825 -20.0625 67.165 -21.125 67.25 C-26.38320506 66.91076096 -29.2008621 64.92764775 -32.75 61.125 C-37.24128921 53.48980834 -37.24280654 44.14876994 -35.20703125 35.71484375 C-32.71891026 28.4792735 -32.71891026 28.4792735 -29 26 C-26.07421875 27.046875 -26.07421875 27.046875 -22.6875 28.75 C-19.34282712 30.41262485 -16.30331221 31.91600585 -12.69921875 32.9140625 C-10 34 -10 34 -8.7578125 36.1640625 C-8.44457031 37.38222656 -8.44457031 37.38222656 -8.125 38.625 C-7.90070313 39.44226563 -7.67640625 40.25953125 -7.4453125 41.1015625 C-7.29835938 41.72804687 -7.15140625 42.35453125 -7 43 C-6.34 43 -5.68 43 -5 43 C-4.67 42.01 -4.34 41.02 -4 40 C-2.33388095 39.957279 -0.66617115 39.95936168 1 40 C2 41 2 41 2.3125 43.6875 C1.92294722 47.81675942 0.42399386 49.67566557 -2 53 C-6.23788707 58.99149551 -4.85192183 65.08198422 -4 72 C3.811773 67.14267961 8.98992243 63.03023272 12 54 C13.92988796 43.30170807 7.84751928 32.83839623 2.4296875 24.0234375 C0.16815762 20.82269303 -1.2306721 19.25644263 -5 18 C-18.19320382 16.98192521 -18.19320382 16.98192521 -30 22 C-30.495 23.485 -30.495 23.485 -31 25 C-32.70703125 26.10546875 -32.70703125 26.10546875 -34.8125 27.1875 C-40.40671016 30.48587839 -42.01966676 35.05900028 -44 41 C-44.89473861 53.62665978 -44.33938971 66.17813738 -41.65625 78.5390625 C-40.11755878 86.65382691 -40.11755878 86.65382691 -42.53125 90.3359375 C-43.1809375 91.00882812 -43.830625 91.68171875 -44.5 92.375 C-45.1496875 93.06335938 -45.799375 93.75171875 -46.46875 94.4609375 C-46.9740625 94.96882813 -47.479375 95.47671875 -48 96 C-51.94584518 95.45215858 -54.30769586 94.38666937 -57.4375 91.9375 C-58.15808594 91.38964844 -58.87867188 90.84179688 -59.62109375 90.27734375 C-65.73857314 84.42103754 -69.25439717 78.12937047 -71.875 70.125 C-72.175271 69.21459961 -72.47554199 68.30419922 -72.78491211 67.36621094 C-77.43663171 52.15200959 -76.19349902 37.08313228 -68.8359375 22.99609375 C-65.81992684 18.07422103 -62.10124082 14.03625637 -58 10 C-57.4121875 9.41347656 -56.824375 8.82695312 -56.21875 8.22265625 C-41.51529444 -5.40578251 -17.95839505 -8.09992892 0 0 Z " fill="#E9EFFE" transform="translate(382,191)"/>
<path d="M0 0 C7.60309055 0 14.76823306 0.11153441 22.26171875 0.91015625 C24.14125892 1.09717738 26.02081674 1.28402114 27.90039062 1.47070312 C30.80348832 1.76605428 33.70622952 2.06444887 36.60864258 2.36645508 C39.45058594 2.65990492 42.2935037 2.9418354 45.13671875 3.22265625 C45.99319504 3.31531265 46.84967133 3.40796906 47.73210144 3.50343323 C55.05063541 4.21756237 62.25046635 4.26590338 69 1 C71.8709315 5.59349039 72.08809786 10.73588487 71.8828125 16.01171875 C71.15164988 35.2154899 74.75354104 51.8815672 87.61865234 66.39892578 C89.51985057 68.60254154 91.14488933 70.95009534 92.75 73.375 C93.19859375 74.04273438 93.6471875 74.71046875 94.109375 75.3984375 C95 77 95 77 95 79 C95.66 79 96.32 79 97 79 C98.33456372 80.93018047 99.5176841 82.84565149 100.6875 84.875 C101.06616211 85.51904785 101.44482422 86.1630957 101.83496094 86.82666016 C103.232614 89.21245937 104.61649799 91.60596671 106 94 C106.89549561 95.54300781 106.89549561 95.54300781 107.80908203 97.1171875 C111.06405403 102.72655929 114.31122856 108.34039466 117.546875 113.9609375 C118.13895752 114.98872314 118.73104004 116.01650879 119.34106445 117.07543945 C120.84062811 119.71904108 122.28160713 122.38654526 123.71484375 125.06640625 C125.41048936 128.13067513 127.00579344 130.39394988 129.8125 132.5625 C132.77862348 134.98830498 135.62438971 137.45426224 138.375 140.125 C139.02210938 140.74632812 139.66921875 141.36765625 140.3359375 142.0078125 C142.18595253 144.22261923 143.06950336 146.28370173 144 149 C140.56404834 147.47291037 137.88087546 145.40072955 135 143 C135.17917969 143.70125 135.35835937 144.4025 135.54296875 145.125 C136.74328429 150.47913479 137.67043923 154.90528509 135.3203125 160.0078125 C132.52794332 164.22115062 129.04477367 167.97167725 125 171 C123.68 171 122.36 171 121 171 C121.350625 169.741875 121.70125 168.48375 122.0625 167.1875 C123.28278615 161.56891631 122.98313248 156.6376503 122 151 C121.855625 150.07445312 121.71125 149.14890625 121.5625 148.1953125 C119.16219782 138.13040905 111.8377962 131.93584062 104.79003906 124.84960938 C101.65329835 121.60848177 98.90910194 118.09423203 96.1015625 114.56640625 C93.85150374 111.81865792 91.48019529 109.22608084 89.0625 106.625 C84.11572151 101.24308821 79.70136623 95.54037983 75.30615234 89.71337891 C72.62501685 86.19633051 69.86359618 82.74097063 67.10571289 79.28393555 C65.72113431 77.5346439 64.36156851 75.76725945 63 74 C62.37125977 73.21343018 61.74251953 72.42686035 61.09472656 71.61645508 C55.62661975 64.52155401 52.21250228 57.26738268 49 48.9375 C48.51144531 47.71611328 48.02289063 46.49472656 47.51953125 45.23632812 C44 36.34877232 44 36.34877232 44 34 C39.79130749 35.2904983 35.58311036 36.58260479 31.375 37.875 C30.18519531 38.23980469 28.99539063 38.60460937 27.76953125 38.98046875 C26.03896484 39.51220703 26.03896484 39.51220703 24.2734375 40.0546875 C22.68668213 40.54171143 22.68668213 40.54171143 21.06787109 41.03857422 C19.0032863 41.6855848 16.95337299 42.38118 14.92041016 43.12158203 C12 44 12 44 7 44 C4.69 29.48 2.38 14.96 0 0 Z " fill="#FE8B7B" transform="translate(366,417)"/>
<path d="M0 0 C0.50430542 1.2986499 0.50430542 1.2986499 1.01879883 2.62353516 C9.77764159 25.40769526 9.77764159 25.40769526 24 45 C25.41547955 46.73414772 26.81377011 48.48259601 28.1875 50.25 C28.73792969 50.93578125 29.28835938 51.6215625 29.85546875 52.328125 C31 54 31 54 31 56 C27.00350092 57.63370402 23.00222187 59.25537175 19 60.875 C17.87464844 61.33519531 16.74929688 61.79539062 15.58984375 62.26953125 C14.48769531 62.71425781 13.38554687 63.15898438 12.25 63.6171875 C11.24453125 64.02565918 10.2390625 64.43413086 9.203125 64.85498047 C5.50204479 66.17800381 1.82457932 67.09818158 -2 68 C-1.98428955 69.04414062 -1.9685791 70.08828125 -1.95239258 71.1640625 C-1.68594962 90.63305953 -1.69325529 109.88026905 -3.93286133 129.2421875 C-4.82047877 137.02242072 -5.10445586 144.59344687 -5.02148438 152.40820312 C-4.99716797 156.4734641 -5.18832059 160.44816772 -5.5 164.5 C-5.5928125 165.7478125 -5.685625 166.995625 -5.78125 168.28125 C-5.8534375 169.1784375 -5.925625 170.075625 -6 171 C-6.33 171 -6.66 171 -7 171 C-7.07347656 169.93458984 -7.07347656 169.93458984 -7.1484375 168.84765625 C-7.22320312 167.92855469 -7.29796875 167.00945312 -7.375 166.0625 C-7.47941406 164.68771484 -7.47941406 164.68771484 -7.5859375 163.28515625 C-7.72257812 162.53105469 -7.85921875 161.77695312 -8 161 C-8.66 160.67 -9.32 160.34 -10 160 C-10.226875 160.886875 -10.45375 161.77375 -10.6875 162.6875 C-12.397552 167.00334553 -14.83994216 169.51560006 -18.6484375 172.1328125 C-22.13801099 173.41966518 -25.58550299 173.20916689 -29.25 173.125 C-29.99507813 173.11597656 -30.74015625 173.10695313 -31.5078125 173.09765625 C-33.33868059 173.07418358 -35.16938238 173.03831525 -37 173 C-35.83378173 169.50134518 -35.34701719 169.40329489 -32.25 167.75 C-27.90468213 165.153692 -25.50748402 162.35010485 -23 158 C-22.401875 157.01 -21.80375 156.02 -21.1875 155 C-17.46548598 145.62901446 -20.18321052 131.61723618 -21.0234375 121.859375 C-21.18279282 119.92786591 -21.18279282 119.92786591 -21.34536743 117.95733643 C-21.56862252 115.25459461 -21.7958212 112.55222716 -22.02636719 109.85009766 C-22.31661443 106.44767056 -22.59969068 103.04469767 -22.88021469 99.6414566 C-24.52470579 79.70588371 -26.42223901 59.83667637 -29 40 C-29.165 38.69933594 -29.33 37.39867187 -29.5 36.05859375 C-30.3555214 29.43498664 -31.31675713 22.89670446 -32.73046875 16.3671875 C-33.03490779 13.69341852 -32.65163719 11.59730567 -32 9 C-27.92657953 7.71281587 -23.85145429 6.4312261 -19.7746582 5.15478516 C-18.38810838 4.7197955 -17.00203555 4.28328237 -15.61645508 3.84521484 C-13.62444608 3.2157086 -11.63078441 2.5917061 -9.63671875 1.96875 C-8.43748779 1.59169922 -7.23825684 1.21464844 -6.00268555 0.82617188 C-3 0 -3 0 0 0 Z " fill="#FE8B7B" transform="translate(410,451)"/>
<path d="M0 0 C4.66147028 1.5415886 8.03517453 3.2351511 11.41796875 6.9453125 C13.99212168 13.91066748 12.37357419 22.41609523 11.67016602 29.6887207 C11.54090225 31.08337807 11.54090225 31.08337807 11.4090271 32.50621033 C11.12618186 35.54494938 10.83669465 38.58301261 10.546875 41.62109375 C10.34715792 43.74713593 10.14777672 45.87320969 9.94871521 47.99931335 C9.53210333 52.43837916 9.11235636 56.87713332 8.69018555 61.31567383 C8.14941881 67.00239727 7.61511472 72.68970481 7.08296299 78.37724018 C6.67239187 82.76030426 6.25913245 87.14311146 5.84498405 91.52583885 C5.6469695 93.62333114 5.44962388 95.72088669 5.25296211 97.81850624 C4.97798783 100.74555245 4.69956893 103.6722506 4.42016602 106.59887695 C4.29932396 107.89485306 4.29932396 107.89485306 4.17604065 109.2170105 C3.79793114 113.14110665 3.3637393 116.96979777 2.48046875 120.8203125 C-1.09353925 117.32956992 -4.43005903 113.70934094 -7.64453125 109.8828125 C-8.11681152 109.32287598 -8.5890918 108.76293945 -9.07568359 108.18603516 C-12.9951351 103.50890087 -16.79524629 98.74321378 -20.52050781 93.91015625 C-22.62062493 91.19253525 -24.73764547 88.57747415 -27.03515625 86.01953125 C-32.51414051 79.89649421 -35.11926902 74.07263077 -37.42578125 66.33203125 C-40.85490007 55.32211046 -48.48337871 47.78357477 -56.51953125 39.8203125 C-48.27486029 32.70702704 -39.9791189 25.67808474 -31.51953125 18.8203125 C-29.70608729 17.34230326 -27.89359832 15.86312159 -26.08203125 14.3828125 C-24.72271484 13.29033203 -24.72271484 13.29033203 -23.3359375 12.17578125 C-21.32243519 10.49181191 -19.43433083 8.80856762 -17.546875 6.99609375 C-11.92725128 1.71691573 -7.96393464 -1.63185962 0 0 Z " fill="#9BBAFE" transform="translate(448.51953125,155.1796875)"/>
<path d="M0 0 C1.45252567 0.09396369 2.90427291 0.20040739 4.35522461 0.31616211 C5.55074448 0.39985046 5.55074448 0.39985046 6.77041626 0.48522949 C9.43382554 0.67606716 12.0955687 0.88397221 14.75756836 1.09350586 C16.61864917 1.23344061 18.47973322 1.37333242 20.34082031 1.51318359 C35.37369277 2.66908203 50.38104307 4.08884482 65.38256836 5.59350586 C66.98432419 5.75183395 66.98432419 5.75183395 68.61843872 5.9133606 C71.66954502 6.21719727 74.71951063 6.53053403 77.76928711 6.84741211 C78.67176178 6.93696167 79.57423645 7.02651123 80.50405884 7.11877441 C85.44593459 7.64634374 89.96114947 8.50868671 94.69506836 10.03100586 C95.34559206 13.6760181 95.98961742 17.32215086 96.63256836 20.96850586 C96.90617187 22.50087891 96.90617187 22.50087891 97.18530273 24.06420898 C98.23619025 30.04471429 99.09645366 35.98814802 99.69506836 42.03100586 C93.28868851 43.53538394 86.92891221 44.6571947 80.40991211 45.53881836 C78.997369 45.73433792 78.997369 45.73433792 77.55628967 45.93380737 C74.58218096 46.34467175 71.6074015 46.75042352 68.63256836 47.15600586 C66.60192266 47.43561451 64.5713232 47.71555923 62.54077148 47.99584961 C57.59272964 48.67811943 52.64408006 49.3558086 47.69506836 50.03100586 C46.04506836 45.08100586 44.39506836 40.13100586 42.69506836 35.03100586 C32.00781007 33.59233647 21.35036998 32.52837535 10.59545898 31.72875977 C9.5996582 31.65189941 8.60385742 31.57503906 7.57788086 31.49584961 C6.68472168 31.43002686 5.7915625 31.3642041 4.87133789 31.29638672 C2.69506836 31.03100586 2.69506836 31.03100586 0.69506836 30.03100586 C0.69506836 27.06100586 0.69506836 24.09100586 0.69506836 21.03100586 C2.61564128 20.44506836 4.53621419 19.85913086 6.45678711 19.27319336 C9.71496948 17.46498744 11.42096874 14.97020993 13.69506836 12.03100586 C11.8890918 11.9575293 11.8890918 11.9575293 10.04663086 11.88256836 C8.47108638 11.80754243 6.8955667 11.73199453 5.32006836 11.65600586 C4.52600586 11.62506836 3.73194336 11.59413086 2.91381836 11.56225586 C-3.07836914 11.25756836 -3.07836914 11.25756836 -5.30493164 9.03100586 C-5.55493164 5.53100586 -5.55493164 5.53100586 -5.30493164 2.03100586 C-3.30493164 0.03100586 -3.30493164 0.03100586 0 0 Z " fill="#EBF1FE" transform="translate(308.304931640625,308.968994140625)"/>
<path d="M0 0 C7.60309055 0 14.76823306 0.11153441 22.26171875 0.91015625 C24.14125892 1.09717738 26.02081674 1.28402114 27.90039062 1.47070312 C30.80348832 1.76605428 33.70622952 2.06444887 36.60864258 2.36645508 C39.45058594 2.65990492 42.2935037 2.9418354 45.13671875 3.22265625 C45.99319504 3.31531265 46.84967133 3.40796906 47.73210144 3.50343323 C55.05063541 4.21756237 62.25046635 4.26590338 69 1 C73.44542995 8.11268791 72.10995155 17.9857537 72 26 C60.43760809 29.76225625 48.82011312 33.2203388 37.09692383 36.44775391 C29.69890053 38.49344329 22.38987163 40.72290764 15.109375 43.15234375 C12 44 12 44 7 44 C4.69 29.48 2.38 14.96 0 0 Z " fill="#273239" transform="translate(366,417)"/>
<path d="M0 0 C0.73669922 -0.00999023 1.47339844 -0.01998047 2.23242188 -0.03027344 C7.72178143 0.05681976 11.02837995 1.15899204 14.90234375 5.0234375 C21.83636817 14.22860614 27.90028384 25.62143423 26.3125 37.4375 C23.93931293 44.71231643 19.74125619 50.25816944 13.3125 54.4375 C11.06640625 55.12109375 11.06640625 55.12109375 9.3125 55.4375 C6.37268334 44.59692607 6.37268334 44.59692607 8.3359375 40.0859375 C8.78195312 39.33570313 9.22796875 38.58546875 9.6875 37.8125 C10.12835938 37.05710938 10.56921875 36.30171875 11.0234375 35.5234375 C12.08478146 33.80599 13.19259933 32.11735101 14.3125 30.4375 C14.47949232 27.31228167 14.47949232 27.31228167 14.3125 24.4375 C12.6625 24.4375 11.0125 24.4375 9.3125 24.4375 C8.9825 25.0975 8.6525 25.7575 8.3125 26.4375 C7.6525 26.4375 6.9925 26.4375 6.3125 26.4375 C6.13976562 25.82261719 5.96703125 25.20773438 5.7890625 24.57421875 C4.09701104 19.5452137 4.09701104 19.5452137 0.13671875 16.3125 C-1.56478315 15.84677009 -3.27991765 15.428688 -5.00390625 15.0546875 C-9.15078311 14.10096618 -12.85974591 12.25891922 -16.6875 10.4375 C-17.3384259 11.68485567 -17.98301669 12.93551832 -18.625 14.1875 C-18.98464844 14.88359375 -19.34429687 15.5796875 -19.71484375 16.296875 C-22.85810347 23.2145711 -22.79658473 31.93144719 -21.00390625 39.21484375 C-18.99323123 44.22901672 -16.70043295 47.07847273 -11.6875 49.4375 C-9.36152489 49.8188074 -7.02837842 50.16210254 -4.6875 50.4375 C-3.08269976 53.64710047 -3.21677448 56.95551565 -3.6875 60.4375 C-6.58684356 65.10166137 -11.68326371 65.99887875 -16.6875 67.4375 C-18.54175519 67.99970811 -20.39592366 68.56220236 -22.25 69.125 C-23.72875215 69.56389904 -25.20776655 70.00192084 -26.6875 70.4375 C-31.42268598 59.67009885 -31.99461361 47.53742316 -32.125 35.9375 C-32.1470752 34.93549561 -32.16915039 33.93349121 -32.19189453 32.90112305 C-32.1691082 24.85151697 -30.42884858 18.7411765 -25.25 12.5 C-22.6875 10.4375 -22.6875 10.4375 -19.9375 9.375 C-19.195 9.065625 -18.4525 8.75625 -17.6875 8.4375 C-17.53796875 7.80457031 -17.3884375 7.17164063 -17.234375 6.51953125 C-16.6875 4.4375 -16.6875 4.4375 -13.6875 2.1875 C-9.21281609 0.12539612 -4.84436488 0.03923399 0 0 Z " fill="#2A353B" transform="translate(368.6875,207.5625)"/>
<path d="M0 0 C0.83273437 0.14050781 1.66546875 0.28101562 2.5234375 0.42578125 C6.48463863 1.21423689 9.5800088 2.02324174 12.4609375 4.9609375 C14.97120809 9.43844055 14.90396555 12.3680344 14.375 17.375 C14.27574219 18.32391113 14.17648437 19.27282227 14.07421875 20.25048828 C13.71471964 23.31956377 13.30361353 26.37735386 12.875 29.4375 C12.73191406 30.49388672 12.58882813 31.55027344 12.44140625 32.63867188 C12.09124103 35.21822235 11.73567163 37.79690125 11.375 40.375 C9.725 40.375 8.075 40.375 6.375 40.375 C6.375 41.365 6.375 42.355 6.375 43.375 C7.695 43.705 9.015 44.035 10.375 44.375 C8.5 46.9375 8.5 46.9375 5.375 49.375 C1.95628404 49.74956051 -1.26246994 48.99014765 -4.625 48.375 C-6.04240463 48.17818538 -7.46042805 47.9857969 -8.87890625 47.796875 C-10.39874324 47.57500099 -11.9182759 47.35103249 -13.4375 47.125 C-14.16678711 47.02832031 -14.89607422 46.93164062 -15.64746094 46.83203125 C-19.29376852 46.23466103 -21.50133188 45.45648301 -24.63671875 43.390625 C-29.60833266 35.85018112 -25.9585334 24.88504992 -24.4375 16.5625 C-24.24091797 15.36173828 -24.04433594 14.16097656 -23.84179688 12.92382812 C-22.07861381 3.18563244 -22.07861381 3.18563244 -19.38671875 0.05078125 C-13.49011182 -3.52721645 -6.43009279 -1.27597154 0 0 Z M-5.625 14.375 C-6.285 15.035 -6.945 15.695 -7.625 16.375 C-4.16 18.355 -4.16 18.355 -0.625 20.375 C-1.40630071 17.87947516 -1.40630071 17.87947516 -2.625 15.375 C-3.615 15.045 -4.605 14.715 -5.625 14.375 Z " fill="#515B61" transform="translate(378.625,97.625)"/>
<path d="M0 0 C1.65 1.65 3.3 3.3 5 5 C4.61722634 6.31636796 4.21770403 7.62786266 3.8125 8.9375 C3.48185547 10.03384766 3.48185547 10.03384766 3.14453125 11.15234375 C2 14 2 14 0.78198242 15.90063477 C-3.3218743 22.34955247 -3.62132441 27.53193559 -3.3125 35.0625 C-3.28994141 36.11888672 -3.26738281 37.17527344 -3.24414062 38.26367188 C-3.18576274 40.84397439 -3.10394519 43.4211998 -3 46 C-14.03017579 45.35891914 -25.0096768 44.38030455 -36.00170898 43.27050781 C-38.72145279 42.99658034 -41.44173973 42.72857068 -44.16210938 42.4609375 C-45.90368096 42.28680932 -47.64521878 42.11234295 -49.38671875 41.9375 C-50.19396896 41.85830322 -51.00121918 41.77910645 -51.83293152 41.69750977 C-55.30578334 41.34298197 -58.62938904 40.90345851 -62 40 C-62.23783203 38.83984375 -62.23783203 38.83984375 -62.48046875 37.65625 C-63.84816799 31.5507197 -65.35605768 26.6348928 -69.01171875 21.5234375 C-70 20 -70 20 -70 18 C-69.33613281 18.20496094 -68.67226563 18.40992188 -67.98828125 18.62109375 C-67.10527344 18.89050781 -66.22226562 19.15992188 -65.3125 19.4375 C-64.44238281 19.70433594 -63.57226562 19.97117187 -62.67578125 20.24609375 C-48.58489108 24.21622777 -32.06597098 23.79841478 -19 17 C-11.55677627 12.66584068 -4.8039703 7.20595545 0 0 Z " fill="#EAF0FE" transform="translate(405,272)"/>
<path d="M0 0 C0.94101562 0.40992188 1.88203125 0.81984375 2.8515625 1.2421875 C4.10931833 1.78658928 5.36713403 2.33085275 6.625 2.875 C7.24246094 3.14441406 7.85992187 3.41382813 8.49609375 3.69140625 C11.43114494 4.95811255 14.25404833 6.06885422 17.34375 6.90625 C20 8 20 8 21.2421875 10.1640625 C21.45101563 10.97617188 21.65984375 11.78828125 21.875 12.625 C22.09929687 13.44226563 22.32359375 14.25953125 22.5546875 15.1015625 C22.77511719 16.04128906 22.77511719 16.04128906 23 17 C23.66 17 24.32 17 25 17 C25.33 16.01 25.66 15.02 26 14 C27.66611905 13.957279 29.33382885 13.95936168 31 14 C32 15 32 15 32.3125 17.6875 C31.92294722 21.81675942 30.42399386 23.67566557 28 27 C24.19884212 32.63619962 24.75107113 37.56894836 26 44 C26.81426689 46.51438458 27.79113965 48.63264848 29 51 C30 53 30 53 29.3203125 55.06640625 C25.99270931 62.01522468 21.70029303 66.85855922 16 72 C11.18834398 69.97458069 9.09108462 66.67764712 7 62 C6.61869766 59.49093645 6.73435519 57.55019013 7 55 C7.639375 54.71125 8.27875 54.4225 8.9375 54.125 C11.15206079 53.17176549 11.15206079 53.17176549 12 51 C12.06996014 49.29297265 12.08440154 47.58331997 12.0625 45.875 C12.05347656 44.96492188 12.04445313 44.05484375 12.03515625 43.1171875 C12.02355469 42.41851562 12.01195312 41.71984375 12 41 C10.96875 41.0825 9.9375 41.165 8.875 41.25 C3.61679494 40.91076096 0.7991379 38.92764775 -2.75 35.125 C-7.23005755 27.50890217 -7.28994806 18.1171996 -5.171875 9.71484375 C-2.69220978 2.69220978 -2.69220978 2.69220978 0 0 Z " fill="#F68778" transform="translate(352,217)"/>
<path d="M0 0 C0.33620361 0.8657666 0.67240723 1.7315332 1.01879883 2.62353516 C9.77764159 25.40769526 9.77764159 25.40769526 24 45 C25.41547955 46.73414772 26.81377011 48.48259601 28.1875 50.25 C28.73792969 50.93578125 29.28835938 51.6215625 29.85546875 52.328125 C31 54 31 54 31 56 C27.02553828 57.63667567 23.04466796 59.25717463 19.0625 60.875 C17.94552734 61.33519531 16.82855469 61.79539062 15.67773438 62.26953125 C9.48046741 64.77751612 3.5780729 66.78623045 -3 68 C-3.08040527 67.10804932 -3.16081055 66.21609863 -3.24365234 65.29711914 C-3.54841643 61.94754016 -3.85843368 58.59852977 -4.171875 55.24975586 C-4.30577758 53.807889 -4.43766107 52.365833 -4.56738281 50.92358398 C-5.32276269 41.55453272 -5.32276269 41.55453272 -7.09375 32.34375 C-8.55357838 26.4603477 -8.21164233 20.45914181 -8.125 14.4375 C-8.11597656 13.23802734 -8.10695313 12.03855469 -8.09765625 10.80273438 C-8.07427412 7.86827691 -8.0415028 4.93424766 -8 2 C-5.09399739 0.74335022 -3.20395416 0 0 0 Z " fill="#EAEFFD" transform="translate(410,451)"/>
<path d="M0 0 C1.45252567 0.09396369 2.90427291 0.20040739 4.35522461 0.31616211 C5.55074448 0.39985046 5.55074448 0.39985046 6.77041626 0.48522949 C9.43382554 0.67606716 12.0955687 0.88397221 14.75756836 1.09350586 C16.61864917 1.23344061 18.47973322 1.37333242 20.34082031 1.51318359 C35.37369277 2.66908203 50.38104307 4.08884482 65.38256836 5.59350586 C66.98432419 5.75183395 66.98432419 5.75183395 68.61843872 5.9133606 C71.66954502 6.21719727 74.71951063 6.53053403 77.76928711 6.84741211 C78.67176178 6.93696167 79.57423645 7.02651123 80.50405884 7.11877441 C85.44593459 7.64634374 89.96114947 8.50868671 94.69506836 10.03100586 C94.36506836 13.00100586 94.03506836 15.97100586 93.69506836 19.03100586 C80.56192056 19.4273929 67.79538107 18.17942063 54.75756836 16.71850586 C50.50670752 16.25346416 46.2552379 15.79414763 42.00366211 15.33569336 C40.95597656 15.2220192 39.90829102 15.10834503 38.82885742 14.9912262 C32.3220225 14.29152931 25.81333114 13.65784499 19.29272461 13.10131836 C18.51298782 13.03433243 17.73325104 12.9673465 16.92988586 12.89833069 C13.34347855 12.59280885 9.75650298 12.29938966 6.16796875 12.02001953 C4.93167725 11.91665283 3.69538574 11.81328613 2.42163086 11.70678711 C1.35509277 11.62340088 0.28855469 11.54001465 -0.81030273 11.45410156 C-3.30493164 11.03100586 -3.30493164 11.03100586 -5.30493164 9.03100586 C-5.55493164 5.53100586 -5.55493164 5.53100586 -5.30493164 2.03100586 C-3.30493164 0.03100586 -3.30493164 0.03100586 0 0 Z " fill="#9CBAFE" transform="translate(308.304931640625,308.968994140625)"/>
<path d="M0 0 C7.99938072 0.00069009 15.88861361 0.64745142 23.84552002 1.41990662 C25.24788703 1.55243282 26.65029267 1.68455079 28.05273438 1.81628418 C30.97094898 2.09143692 33.88882025 2.36990023 36.80645752 2.65110779 C40.53010747 3.009956 44.25429216 3.3628264 47.9787178 3.71352291 C51.55952329 4.05100133 55.14002416 4.39166187 58.72052002 4.73240662 C59.73053951 4.82806569 59.73053951 4.82806569 60.76096344 4.92565727 C62.6815694 5.10809866 64.60192874 5.29313062 66.52227783 5.47825623 C67.61050842 5.58262497 68.69873901 5.68699371 69.81994629 5.79452515 C79.75025746 6.87542531 79.75025746 6.87542531 82.01739502 9.14256287 C82.03431039 11.89976845 81.49455683 14.40972705 81.01739502 17.14256287 C80.01739502 18.14256287 80.01739502 18.14256287 76.11334229 18.26902771 C70.86322556 18.20834319 65.6969603 17.69832198 60.48223877 17.11912537 C59.48648331 17.01288849 58.49072784 16.90665161 57.46479797 16.79719543 C54.29433122 16.45844954 51.12458104 16.11353181 47.95489502 15.76756287 C43.81855399 15.31867272 39.6818495 14.8733654 35.54473877 14.43162537 C34.52431488 14.32215576 33.50389099 14.21268616 32.45254517 14.09989929 C23.79928178 13.18806337 15.13525898 12.4548534 6.45829773 11.80799866 C5.510439 11.73455231 4.56258026 11.66110596 3.58599854 11.58543396 C2.33158714 11.49266678 2.33158714 11.49266678 1.05183411 11.39802551 C-0.98260498 11.14256287 -0.98260498 11.14256287 -2.98260498 10.14256287 C-3.00949714 8.66349395 -3.0289512 7.18428804 -3.04510498 5.70506287 C-3.05670654 4.88135193 -3.06830811 4.05764099 -3.08026123 3.20896912 C-2.95036534 0.46037207 -2.74125395 0.19711492 0 0 Z " fill="#9DBBFE" transform="translate(311.98260498046875,328.85743713378906)"/>
<path d="M0 0 C2 1.5859375 2 1.5859375 4 4 C4.89248929 12.85795622 3.12249304 22.90570338 -2.57421875 29.9453125 C-5.37110902 32.64792557 -7.34074882 33.87073506 -11.1875 34.625 C-22.81550426 32.71876979 -33.25200198 27.49866535 -43 21 C-42.42365861 16.24518354 -40.44931479 13.02951788 -38 9 C-35.39356859 10.27826089 -32.86086899 11.6279557 -30.35546875 13.09375 C-29.67806641 13.48433594 -29.00066406 13.87492187 -28.30273438 14.27734375 C-26.90135286 15.08737591 -25.5028596 15.90242713 -24.10742188 16.72265625 C-19.79477754 19.1951846 -15.83730491 20.83651751 -11 22 C-6.46712943 14.95925258 -3.02950947 7.80165713 0 0 Z " fill="#FEF3F2" transform="translate(447,272)"/>
<path d="M0 0 C0.99 0.33 1.98 0.66 3 1 C3.96484375 2.9609375 3.96484375 2.9609375 4.9375 5.375 C6.50768824 8.30632775 7.4187765 9.71499491 10.4296875 11.19140625 C13.61683938 12.01626534 16.737584 12.55250046 20 13 C20.66128906 13.09861328 21.32257813 13.19722656 22.00390625 13.29882812 C34.82321531 15.81374125 34.82321531 15.81374125 47 13 C52.03338956 12.46005457 57.05584156 12.98581365 62 14 C60.54905987 17.38552696 58.8783496 19.68132949 56 22 C54.00448218 22.35919321 52.00451121 22.69496569 50 23 C49.34 23.99 48.68 24.98 48 26 C36.78571221 28.02973535 25.6105564 24.23166556 15 21 C13.76636719 20.63132812 12.53273438 20.26265625 11.26171875 19.8828125 C1.5788808 16.8325412 1.5788808 16.8325412 -1 14 C-1.171875 10.64453125 -1.171875 10.64453125 -0.75 6.8125 C-0.55664062 4.90404297 -0.55664062 4.90404297 -0.359375 2.95703125 C-0.24078125 1.98121094 -0.1221875 1.00539063 0 0 Z " fill="#FEF3F2" transform="translate(260,307)"/>
<path d="M0 0 C3.2045818 0.58170409 4.86193181 1.47874021 7.1640625 3.765625 C7.72867187 4.32636719 8.29328125 4.88710938 8.875 5.46484375 C9.4525 6.05394531 10.03 6.64304687 10.625 7.25 C11.21023438 7.82363281 11.79546875 8.39726563 12.3984375 8.98828125 C15.50370215 12.1149124 17.74423646 14.66190779 19 19 C15.56404834 17.47291037 12.88087546 15.40072955 10 13 C10.26876953 14.051875 10.26876953 14.051875 10.54296875 15.125 C11.74328429 20.47913479 12.67043923 24.90528509 10.3203125 30.0078125 C7.52794332 34.22115062 4.04477367 37.97167725 0 41 C-1.32 41 -2.64 41 -4 41 C-3.649375 39.741875 -3.29875 38.48375 -2.9375 37.1875 C-1.38935959 30.15451926 -1.89691703 23.30063161 -4.625 16.625 C-6.06930522 12.81728623 -6.47841785 11.69604463 -5 8 C-3.43361334 5.26267512 -1.75963687 2.61672936 0 0 Z " fill="#263237" transform="translate(491,547)"/>
<path d="M0 0 C-0.33 8.25 -0.66 16.5 -1 25 C-1.33 25 -1.66 25 -2 25 C-2.04898437 24.28972656 -2.09796875 23.57945312 -2.1484375 22.84765625 C-2.22320312 21.92855469 -2.29796875 21.00945313 -2.375 20.0625 C-2.44460938 19.14597656 -2.51421875 18.22945312 -2.5859375 17.28515625 C-2.72257812 16.53105469 -2.85921875 15.77695312 -3 15 C-3.66 14.67 -4.32 14.34 -5 14 C-5.226875 14.886875 -5.45375 15.77375 -5.6875 16.6875 C-7.397552 21.00334553 -9.83994216 23.51560006 -13.6484375 26.1328125 C-17.13801099 27.41966518 -20.58550299 27.20916689 -24.25 27.125 C-24.99507813 27.11597656 -25.74015625 27.10695313 -26.5078125 27.09765625 C-28.33868059 27.07418358 -30.16938238 27.03831525 -32 27 C-30.83378173 23.50134518 -30.34701719 23.40329489 -27.25 21.75 C-20.97436965 17.97341531 -18.46569953 13.55221194 -16.25 6.6875 C-14.62936049 2.32831046 -14.62936049 2.32831046 -11.92578125 0.91796875 C-7.87113221 -0.01359524 -4.18095755 0 0 0 Z " fill="#29343A" transform="translate(405,597)"/>
<path d="M0 0 C1.51400391 0.02707031 1.51400391 0.02707031 3.05859375 0.0546875 C4.00863281 0.09851563 4.95867187 0.14234375 5.9375 0.1875 C6.79214844 0.22230469 7.64679688 0.25710937 8.52734375 0.29296875 C11 1 11 1 13.13671875 3.40234375 C17.28499807 7.16578952 21.45568324 7.52308627 26.875 8.375 C27.84308594 8.55160156 28.81117188 8.72820312 29.80859375 8.91015625 C35.1295762 9.81508524 39.74704502 10.41479588 45 9 C45.66 8.01 46.32 7.02 47 6 C51.8417172 5.14791062 57.70182881 4.50892464 61.96875 7.27734375 C63.76220653 9.40968015 65 11.15352545 65 14 C47.13827183 13.59861285 29.4964105 11.67011961 11.75366211 9.7258606 C2.18136507 8.68259423 -7.40621729 7.81924437 -17 7 C-14.00966807 -1.74097027 -8.02411986 -0.28691728 0 0 Z " fill="#E0E9FD" transform="translate(341,136)"/>
<path d="M0 0 C3 2.4375 3 2.4375 5 5 C5.33 5.33 5.66 5.66 6 6 C6.38270052 10.9751068 6.17088582 14.06372795 3 18 C0.3017982 20.11480682 -1.55721934 20.92463308 -4.9375 21.5 C-9.25011712 20.79589925 -10.88856971 19.03907145 -14 16 C-15.60086627 12.79826746 -15.49917089 9.47422941 -15 6 C-11.10575284 -0.10098722 -6.9646399 -1.11867273 0 0 Z " fill="#6593FA" transform="translate(386,376)"/>
<path d="M0 0 C3.6578218 2.03993908 5.66946174 3.50419262 8 7 C8.67226891 13.94677871 8.67226891 13.94677871 6.125 17.9375 C2.63841797 21.3215355 -0.03592714 21.38966392 -4.73828125 21.359375 C-8.32520929 20.78943134 -9.86838894 18.79773951 -12 16 C-13.55024464 12.89951072 -13.28992015 10.42105782 -13 7 C-9.57145506 1.67984406 -6.42321401 -0.75567224 0 0 Z " fill="#C8D5EE" transform="translate(412,378)"/>
<path d="M0 0 C6.29108249 5.84960301 8.59963088 12.5922484 9 21 C0.41922945 21.24911914 -7.58173087 20.69882188 -16 19 C-13.349617 14.65337188 -10.40410725 11.28207253 -6.75 7.74609375 C-4.30509186 5.30664299 -2.16449329 2.68921894 0 0 Z " fill="#FDF3F2" transform="translate(334,291)"/>
<path d="M0 0 C11.68367449 -0.51127911 23.20424327 0.85699401 34.8059082 2.08129883 C38.21682072 2.44058851 41.62876982 2.78839058 45.04101562 3.13476562 C47.20840245 3.3587071 49.37572284 3.58329262 51.54296875 3.80859375 C52.56367966 3.91280136 53.58439056 4.01700897 54.6360321 4.12437439 C56.04439079 4.27441673 56.04439079 4.27441673 57.48120117 4.42749023 C58.30802902 4.51409409 59.13485687 4.60069794 59.98674011 4.68992615 C62 5 62 5 64 6 C64 6.99 64 7.98 64 9 C56.33706521 9.16954884 48.83500194 8.64443764 41.2109375 7.90625 C40.02650055 7.79526978 38.8420636 7.68428955 37.62173462 7.56994629 C33.87239831 7.21764013 30.12370797 6.85892397 26.375 6.5 C23.81905053 6.25868935 21.26306127 6.01779967 18.70703125 5.77734375 C12.47088582 5.18976367 6.23525679 4.59693243 0 4 C0 2.68 0 1.36 0 0 Z " fill="#A5C1FF" transform="translate(276,369)"/>
<path d="M0 0 C2.18479577 0.23834136 4.36511548 0.52111475 6.5390625 0.84375 C8.21548828 1.04097656 8.21548828 1.04097656 9.92578125 1.2421875 C12.678945 1.5716259 15.42103492 1.93963475 18.1640625 2.34375 C18.8240625 5.31375 19.4840625 8.28375 20.1640625 11.34375 C9.37610167 10.87896257 -1.17020418 10.10994057 -11.8359375 8.34375 C-8.98469058 2.60000273 -6.6870283 -0.27889028 0 0 Z " fill="#F9FBFE" transform="translate(327.8359375,320.65625)"/>
<path d="M0 0 C11.8430851 0.48305129 23.63460782 1.43954463 35.4375 2.5 C36.18208466 2.56571198 36.92666931 2.63142395 37.69381714 2.6991272 C39.83663612 2.88908307 41.97891045 3.08426817 44.12109375 3.28125 C45.3733374 3.39533203 46.62558105 3.50941406 47.91577148 3.62695312 C51 4 51 4 54 5 C54 6.32 54 7.64 54 9 C42.34376183 8.26797162 30.74221816 7.12125483 19.125 5.9375 C17.26173761 5.74916223 15.39845647 5.56100994 13.53515625 5.37304688 C9.02321884 4.91749823 4.51154117 4.45945561 0 4 C0 2.68 0 1.36 0 0 Z " fill="#A5C2FF" transform="translate(275,383)"/>
<path d="M0 0 C0 2.64 0 5.28 0 8 C-3.24542723 9.34466186 -6.49702334 10.6737175 -9.75 12 C-10.67039062 12.3815625 -11.59078125 12.763125 -12.5390625 13.15625 C-13.42851562 13.5171875 -14.31796875 13.878125 -15.234375 14.25 C-16.05131836 14.58515625 -16.86826172 14.9203125 -17.70996094 15.265625 C-20 16 -20 16 -24 16 C-24.33 13.36 -24.66 10.72 -25 8 C-6.53191489 0 -6.53191489 0 0 0 Z " fill="#C96E61" transform="translate(402,453)"/>
<path d="M0 0 C3.10976618 0.2521432 4.81792883 0.87063364 7.375 2.6875 C9 5 9 5 9.1875 7.6875 C7.34507866 12.82688583 3.85696182 17.14303818 0 21 C-0.5396728 23.24081531 -1.0317786 25.49317286 -1.5 27.75 C-1.88671875 29.59851563 -1.88671875 29.59851563 -2.28125 31.484375 C-2.86129863 34.32156938 -3.43624274 37.15953071 -4 40 C-4.33 40 -4.66 40 -5 40 C-4.31703439 31.25301836 -3.45999036 22.53320452 -2.5 13.8125 C-2.36980469 12.58724609 -2.23960937 11.36199219 -2.10546875 10.09960938 C-1.97785156 8.93880859 -1.85023438 7.77800781 -1.71875 6.58203125 C-1.60466797 5.53249268 -1.49058594 4.4829541 -1.37304688 3.40161133 C-1 1 -1 1 0 0 Z " fill="#FA8D7F" transform="translate(456,248)"/>
<path d="M0 0 C0 0.99 0 1.98 0 3 C-1.0058313 2.96072388 -1.0058313 2.96072388 -2.03198242 2.9206543 C-5.08358128 2.81642762 -8.13480542 2.75159377 -11.1875 2.6875 C-12.24259766 2.64560547 -13.29769531 2.60371094 -14.38476562 2.56054688 C-20.62530045 2.3818935 -20.62530045 2.3818935 -26 5.21875 C-26.99 6.59546875 -26.99 6.59546875 -28 8 C-28.66644531 8.81082031 -29.33289063 9.62164062 -30.01953125 10.45703125 C-30.61121094 11.23433594 -31.20289063 12.01164063 -31.8125 12.8125 C-32.41707031 13.60269531 -33.02164062 14.39289063 -33.64453125 15.20703125 C-34.31548828 16.09455078 -34.31548828 16.09455078 -35 17 C-35.99 16.67 -36.98 16.34 -38 16 C-37 14 -36 12 -35 10 C-37.97 9.67 -40.94 9.34 -44 9 C-44 8.67 -44 8.34 -44 8 C-40.04 8 -36.08 8 -32 8 C-31.34 6.35 -30.68 4.7 -30 3 C-22.32130387 -5.860034 -10.31565574 -1.83680993 0 0 Z " fill="#4981FE" transform="translate(352,134)"/>
<path d="M0 0 C0 1.32 0 2.64 0 4 C-3.57569376 5.53926208 -7.16159808 7.05312844 -10.75 8.5625 C-11.76578125 9.00013672 -12.7815625 9.43777344 -13.828125 9.88867188 C-14.8078125 10.29794922 -15.7875 10.70722656 -16.796875 11.12890625 C-18.14797363 11.70233765 -18.14797363 11.70233765 -19.52636719 12.28735352 C-22.18091325 13.05212059 -23.44300584 12.94191316 -26 12 C-26.33 10.68 -26.66 9.36 -27 8 C-24.99648403 7.33216134 -22.99275423 6.66496073 -20.98828125 6 C-18.71147499 5.23808836 -16.43898354 4.46632547 -14.16796875 3.6875 C-12.82031552 3.22915778 -11.47265927 2.77082446 -10.125 2.3125 C-9.47072021 2.08602783 -8.81644043 1.85955566 -8.14233398 1.6262207 C-5.29174741 0.66125339 -3.03308875 0 0 0 Z " fill="#C66D61" transform="translate(437,443)"/>
<path d="M0 0 C2 1.4375 2 1.4375 4 4 C4.85341823 10.4290275 3.57363706 17.09320285 2.5625 23.4375 C2.42779297 24.33404297 2.29308594 25.23058594 2.15429688 26.15429688 C1.14000307 32.71999387 1.14000307 32.71999387 0 35 C-0.99 35 -1.98 35 -3 35 C-2.62066107 28.72094238 -2.19682082 22.54656514 -0.9375 16.375 C0.15379749 10.88617782 0.194202 5.57791307 0 0 Z " fill="#28343A" transform="translate(389,102)"/>
<path d="M0 0 C0.2475 0.556875 0.495 1.11375 0.75 1.6875 C2.21606015 4.39971127 4.02989471 6.63587365 6 9 C9.4810594 9 11.51611009 8.41017908 14.1796875 6.15234375 C16.17135994 4.1429518 18.11039323 2.10542481 20 0 C20.33 0.66 20.66 1.32 21 2 C17.34161026 7.11136723 13.55388068 11.66297078 9 16 C4.18612991 13.98393475 2.13953191 10.63994871 0 6 C-0.3125 2.5 -0.3125 2.5 0 0 Z " fill="#F7F2F7" transform="translate(359,273)"/>
<path d="M0 0 C8.02408469 0.49688008 16.01795622 1.01974901 24 2 C24 3.32 24 4.64 24 6 C7.1070615 5.03644647 7.1070615 5.03644647 0 4 C0 2.68 0 1.36 0 0 Z " fill="#A5C1FF" transform="translate(275,374)"/>
<path d="M0 0 C2.41700987 0.14129287 4.83350429 0.28786487 7.25 0.4375 C8.27287109 0.49647461 8.27287109 0.49647461 9.31640625 0.55664062 C12.64448041 0.76666472 15.80255402 1.01934002 19 2 C19 2.99 19 3.98 19 5 C12.58311325 5.10349817 6.37305598 4.74507544 0 4 C0 2.68 0 1.36 0 0 Z " fill="#A2BFFF" transform="translate(304,377)"/>
<path d="M0 0 C0.33 0 0.66 0 1 0 C2.21550732 7.16163774 1.90581135 14.00438645 1.1875 21.1875 C1.10516113 22.03022461 1.02282227 22.87294922 0.93798828 23.74121094 C0.36964757 28.98063395 -0.61031426 33.91621292 -2 39 C-2.33 39 -2.66 39 -3 39 C-2.28158937 25.97408103 -1.17316902 12.99195035 0 0 Z " fill="#4D83FF" transform="translate(460,175)"/>
<path d="M0 0 C3.82097239 0.53069061 6.06171403 1.49701566 9 4 C8.34 5.65 7.68 7.3 7 9 C4.625 9.125 4.625 9.125 2 9 C0 7 0 7 -0.125 3.375 C-0.08375 2.26125 -0.0425 1.1475 0 0 Z " fill="#DBE3F8" transform="translate(369,114)"/>
<path d="M0 0 C0.66 0.33 1.32 0.66 2 1 C-4.6 7.6 -11.2 14.2 -18 21 C-18 15.4848483 -12.6982596 11.77044785 -9 8 C-6.06452633 5.25405391 -3.06806982 2.59661701 0 0 Z " fill="#C7D7FF" transform="translate(258,108)"/>
<path d="M0 0 C0.99 0 1.98 0 3 0 C2.67 4.29 2.34 8.58 2 13 C0.35 12.01 -1.3 11.02 -3 10 C-2.25 2.25 -2.25 2.25 0 0 Z " fill="#F69088" transform="translate(256,306)"/>
<path d="M0 0 C0.66 0 1.32 0 2 0 C2.33 2.97 2.66 5.94 3 9 C0.03 8.67 -2.94 8.34 -6 8 C-5.04956626 6.66102417 -4.08940853 5.32894573 -3.125 4 C-2.59132813 3.2575 -2.05765625 2.515 -1.5078125 1.75 C-1.01023437 1.1725 -0.51265625 0.595 0 0 Z " fill="#FCFDFE" transform="translate(340,303)"/>
<path d="M0 0 C-1.375 1.5 -1.375 1.5 -3 3 C-3.66 3 -4.32 3 -5 3 C-4.67 5.97 -4.34 8.94 -4 12 C-5.32 11.34 -6.64 10.68 -8 10 C-8.36272727 3.59181818 -8.36272727 3.59181818 -6.8125 1.0625 C-4.43958382 -0.32851983 -2.70313576 -0.21917317 0 0 Z " fill="#2C383F" transform="translate(374,111)"/>
<path d="M0 0 C3.71368887 1.23789629 4.77354181 2.85224877 7 6 C7 6.66 7 7.32 7 8 C4.69 8 2.38 8 0 8 C0 5.36 0 2.72 0 0 Z " fill="#D6E1FD" transform="translate(390,130)"/>
<path d="M0 0 C0.66 0 1.32 0 2 0 C-0.00253932 4.73327475 -3.3936338 8.3936338 -7 12 C-6.6257368 6.63556087 -5.0040457 4.50353999 -1 1 C-0.67 0.67 -0.34 0.34 0 0 Z " fill="#588CFF" transform="translate(281,141)"/>
<path d="M0 0 C-0.8125 1.9375 -0.8125 1.9375 -2 4 C-2.99 4.33 -3.98 4.66 -5 5 C-5 6.98 -5 8.96 -5 11 C-5.33 11 -5.66 11 -6 11 C-6.33 8.03 -6.66 5.06 -7 2 C-2.25 0 -2.25 0 0 0 Z " fill="#CB7164" transform="translate(371,256)"/>
<path d="M0 0 C1.11375 0.1546875 1.11375 0.1546875 2.25 0.3125 C1.125 2.8125 1.125 2.8125 -0.75 5.3125 C-3.9375 5.625 -3.9375 5.625 -6.75 5.3125 C-3.42692308 0.38942308 -3.42692308 0.38942308 0 0 Z " fill="#2D3940" transform="translate(386.75,140.6875)"/>
</svg>
